<?xml version="1.0" encoding="UTF-8"?>
<svg width="364px" height="184px" viewBox="0 0 364 184" version="1.1" xmlns="http://www.w3.org/2000/svg" xmlns:xlink="http://www.w3.org/1999/xlink">
    <!-- Generator: Sketch 52.2 (67145) - http://www.bohemiancoding.com/sketch -->
    <title>am_logo</title>
    <desc>Created with Sketch.</desc>
    <g id="Page-1" stroke="none" stroke-width="1" fill="none" fill-rule="evenodd">
        <g id="Artboard" transform="translate(-135.000000, -73.000000)">
            <g id="am_logo" transform="translate(135.000000, 73.000000)">
                <g id="Group" transform="translate(1.000000, 0.000000)" fill="#FFFFFF">
                    <path d="M355.672,63.035 C353.608,63.035 351.49,62.283 350.29,61.658 C325.841,48.927 298.108,41.399 271.177,41.399 C267.799,41.399 265.304,41.539 262.157,41.851 C267.236,49.925 275.987,61.67 281.985,68.872 C283.543,70.741 284.008,71.869 284.008,73.669 C284.008,76.81 280.701,79.847 277.187,79.847 C274.841,79.847 273.443,78.923 271.27,76.372 C263.965,67.808 253.004,52.624 247.805,44.009 C222.246,48.53 193.751,63.625 176.911,76.955 C174.989,78.503 173.652,79.135 171.717,79.135 C168.138,79.135 165.03,76.054 165.03,72.535 C165.03,70.5 165.78,68.965 168.415,66.774 C194.11,45.383 234.025,28.489 267.922,28.489 C281.358,28.489 294.323,30.352 306.86,33.418 C314.466,35.279 325.756,39.063 335.365,43.257 C310.167,28.027 278.573,14.112 258.599,14.112 C253.504,14.112 250.384,15.818 250.384,19.254 C250.384,21.273 251.516,23.977 253.191,26.695 C249.192,27.102 243.93,27.912 239.943,28.979 C237.86,25.163 236.412,21.088 236.412,16.715 C236.412,6.97 242.759,0.979 255.543,0.979 C284.492,0.979 333.157,27.965 357.44,47.678 C360.219,49.936 362.959,52.738 362.959,56.02 C362.96,59.271 360.147,63.035 355.672,63.035 Z" id="Path"></path>
                    <g transform="translate(0.000000, 106.000000)">
                        <path d="M41.008,14.452 C41.008,12.718 42.059,11.64 43.675,11.64 C45.293,11.64 46.297,12.717 46.297,14.452 L46.297,17.385 C47.706,14.494 50.832,11.641 53.644,11.641 C55.455,11.641 56.331,12.704 56.331,14.114 C56.331,15.489 55.579,16.52 53.251,17.167 C48.421,18.511 46.308,21.212 46.308,26.39 L46.308,41.385 C46.308,43.123 45.294,44.198 43.676,44.198 C42.06,44.198 41.009,43.123 41.009,41.385 L41.009,14.452 L41.008,14.452 Z" id="Path"></path>
                        <path d="M159.762,14.452 C159.762,12.718 160.813,11.64 162.428,11.64 C164.045,11.64 165.051,12.717 165.051,14.452 L165.051,17.385 C166.461,14.494 169.588,11.641 172.401,11.641 C174.209,11.641 175.088,12.704 175.088,14.114 C175.088,15.489 174.332,16.52 172.008,17.167 C167.176,18.511 165.063,21.212 165.063,26.39 L165.063,41.385 C165.063,43.123 164.046,44.198 162.429,44.198 C160.814,44.198 159.763,43.123 159.763,41.385 L159.763,14.452 L159.762,14.452 Z" id="Path"></path>
                        <path d="M71.418,11.641 C76.593,11.641 79.921,13.718 79.921,15.584 C79.921,16.705 79.09,17.821 77.831,17.821 C75.894,17.821 74.978,16.256 71.417,16.256 C65.404,16.256 62.319,21.636 62.319,27.922 C62.319,34.731 65.799,39.582 71.417,39.582 C75.339,39.582 76.196,37.966 78.039,37.966 C79.238,37.966 79.963,38.774 79.963,40.016 C79.963,41.214 78.974,42.191 77.185,43.014 C75.626,43.733 73.563,44.198 71.417,44.198 C62.405,44.198 56.998,37.436 56.998,27.923 C56.999,18.607 62.457,11.641 71.418,11.641 Z" id="Path"></path>
                        <path d="M87.677,29.955 C87.776,35.16 91.147,39.582 97.073,39.582 C103.301,39.582 104.774,36.096 107.021,36.096 C108.287,36.096 109.172,36.949 109.172,38.285 C109.172,40.863 103.486,44.197 97.126,44.197 C92.365,44.197 89.172,42.689 86.789,40.276 C83.765,37.208 82.354,32.677 82.354,27.922 C82.354,19.225 87.741,11.641 96.66,11.641 C104.951,11.641 110.332,18.962 110.332,27.143 C110.332,28.997 109.577,29.956 107.395,29.956 L87.677,29.956 L87.677,29.955 Z M105.032,26.003 C105.032,21.456 102.443,16.256 96.635,16.256 C90.927,16.256 87.873,20.735 87.677,26.003 L105.032,26.003 Z" id="Shape" fill-rule="nonzero"></path>
                        <path d="M121.184,41.384 C121.184,43.122 120.156,44.197 118.542,44.197 C116.924,44.197 115.887,43.122 115.887,41.384 L115.887,3.682 C115.887,1.947 116.924,0.869 118.542,0.869 C120.156,0.869 121.184,1.946 121.184,3.682 L121.184,41.384 Z" id="Path"></path>
                        <path d="M140.464,44.207 C132.039,44.207 126.439,37.494 126.439,27.922 C126.439,18.346 132.039,11.629 140.464,11.629 C148.891,11.629 154.49,18.346 154.49,27.922 C154.49,37.494 148.891,44.207 140.464,44.207 Z M140.464,39.582 C145.629,39.582 149.168,35.08 149.168,27.922 C149.168,20.757 145.629,16.256 140.464,16.256 C135.3,16.256 131.76,20.757 131.76,27.922 C131.76,35.08 135.3,39.582 140.464,39.582 Z" id="Shape" fill-rule="nonzero"></path>
                        <path d="M211.854,13.837 C208.898,23.986 204.046,40.67 203.648,42.043 C203.209,43.563 202.281,44.197 200.835,44.197 C199.388,44.197 198.489,43.662 198.02,42.043 C197.608,40.619 192.525,23.134 189.598,13.088 C189.118,11.431 188.668,9.47 188.327,7.813 C188.127,9.436 187.87,11.333 187.586,13.103 C186.073,22.596 183.726,37.393 183.071,41.571 C182.785,43.411 181.853,44.198 180.313,44.198 C178.868,44.198 177.95,43.229 177.95,41.688 C177.95,41.088 178.068,40.312 178.244,39.294 C178.244,39.294 183.558,7.322 183.984,4.877 C184.436,2.268 185.789,0.869 187.996,0.869 C189.956,0.869 191.515,2.021 192.135,4.193 C192.52,5.546 196.803,20.562 199.526,30.056 C200.026,31.806 200.531,33.869 200.914,35.733 C201.278,33.909 201.747,31.934 202.239,30.227 C204.955,20.742 209.323,5.55 209.711,4.193 C210.335,2.021 211.716,0.869 213.675,0.869 C215.746,0.869 217.265,2.218 217.688,4.877 C218.079,7.327 223.429,39.294 223.429,39.294 C223.606,40.312 223.724,41.088 223.724,41.688 C223.724,43.229 222.801,44.198 221.36,44.198 C219.821,44.198 218.884,43.411 218.597,41.571 C217.964,37.514 215.733,23.429 214.218,13.926 C213.906,11.987 213.622,9.787 213.385,7.77 C213,9.529 212.48,11.688 211.854,13.837 Z" id="Path"></path>
                        <path d="M233.042,2.306 C234.837,2.306 236.277,3.74 236.277,5.535 C236.277,7.333 234.837,8.768 233.042,8.768 C231.245,8.768 229.808,7.332 229.808,5.535 C229.808,3.739 231.245,2.306 233.042,2.306 Z M235.698,14.452 C235.698,12.718 234.657,11.64 233.042,11.64 C231.425,11.64 230.396,12.717 230.396,14.452 L230.396,41.384 C230.396,43.122 231.425,44.197 233.042,44.197 C234.657,44.197 235.698,43.122 235.698,41.384 L235.698,14.452 Z" id="Shape" fill-rule="nonzero"></path>
                        <path d="M244.909,5.117 C244.909,3.381 245.938,2.305 247.553,2.305 C249.169,2.305 250.21,3.38 250.21,5.117 L250.21,12 L252.363,12 C254.1,12 254.998,12.848 254.998,14.285 C254.998,15.722 254.101,16.582 252.363,16.582 L250.21,16.582 L250.21,41.384 C250.21,43.122 249.169,44.197 247.553,44.197 C245.939,44.197 244.909,43.122 244.909,41.384 L244.909,16.582 L242.988,16.582 C241.251,16.582 240.353,15.723 240.353,14.285 C240.353,12.847 241.25,12 242.988,12 L244.909,12 L244.909,5.117 Z" id="Path"></path>
                        <path d="M261.612,5.117 C261.612,3.381 262.651,2.305 264.269,2.305 C265.885,2.305 266.913,3.38 266.913,5.117 L266.913,12 L269.067,12 C270.803,12 271.703,12.848 271.703,14.285 C271.703,15.722 270.804,16.582 269.067,16.582 L266.913,16.582 L266.913,41.384 C266.913,43.122 265.886,44.197 264.269,44.197 C262.651,44.197 261.612,43.122 261.612,41.384 L261.612,16.582 L259.68,16.582 C257.945,16.582 257.047,15.723 257.047,14.285 C257.047,12.847 257.944,12 259.68,12 L261.612,12 L261.612,5.117 Z" id="Path"></path>
                        <path d="M35.312,39.351 C34.205,36.382 23.858,8.563 22.249,4.276 C21.441,2.123 20.205,0.87 18.16,0.87 C16.065,0.87 14.952,2.126 14.138,4.276 C13.406,6.207 2.138,36.388 1.018,39.351 C0.524,40.655 0.335,41.354 0.335,41.917 C0.335,43.244 1.47,44.197 2.847,44.197 C4.268,44.197 5.084,43.46 5.533,42.223 C5.802,41.477 7.269,37.37 9.134,32.135 L27.183,32.135 C28.948,37.078 30.367,41.05 30.791,42.223 C31.188,43.341 31.926,44.197 33.361,44.197 C34.736,44.197 36.03,43.361 36.03,41.985 C36.03,41.376 35.887,40.895 35.312,39.351 Z M10.808,27.455 C13.004,21.298 15.404,14.566 17.01,10.066 C17.457,8.81 17.854,7.619 18.164,6.628 C18.497,7.699 18.905,8.923 19.307,10.054 C20.915,14.565 23.311,21.288 25.512,27.454 L10.808,27.454 L10.808,27.455 Z" id="Shape" fill-rule="nonzero"></path>
                        <path d="M314.968,41.384 C314.968,43.122 313.927,44.197 312.311,44.197 C310.696,44.197 309.668,43.122 309.668,41.384 L309.668,3.682 C309.668,1.947 310.695,0.869 312.311,0.869 C313.927,0.869 314.968,1.946 314.968,3.682 L314.968,41.384 Z" id="Path"></path>
                        <path d="M299.526,11.641 C297.914,11.641 296.884,12.718 296.884,14.453 L296.884,16.836 C294.928,13.618 291.748,11.63 287.819,11.63 C279.752,11.63 274.203,18.347 274.203,27.923 C274.203,37.495 279.752,44.208 287.819,44.208 C291.749,44.208 294.928,42.225 296.884,39.005 L296.884,41.385 C296.884,43.123 297.913,44.198 299.526,44.198 C301.145,44.198 302.182,43.123 302.182,41.385 L302.182,14.453 C302.183,12.718 301.146,11.641 299.526,11.641 Z M288.229,39.591 C283.067,39.591 279.527,35.08 279.527,27.922 C279.527,20.757 283.067,16.249 288.229,16.249 C293.396,16.249 296.935,20.757 296.935,27.922 C296.936,35.08 293.396,39.591 288.229,39.591 Z" id="Shape" fill-rule="nonzero"></path>
                    </g>
                </g>
                <g id="Group" transform="translate(0.000000, 164.000000)" fill="#FFFFFF">
                    <path d="M4.261,1.095 C6.571,1.095 7.59,1.186 8.608,1.526 C11.416,2.409 13.25,5.171 13.25,8.545 C13.25,10.696 12.48,12.689 11.144,14.048 C9.514,15.7 7.77,16.198 3.717,16.198 L0.388,16.198 L0.388,1.095 L4.261,1.095 Z M4.805,14.092 C7.205,14.092 8.7,13.481 9.65,12.1 C10.284,11.194 10.624,9.926 10.624,8.454 C10.624,6.757 10.149,5.466 9.175,4.492 C8.111,3.428 7.092,3.156 4.216,3.156 L3.016,3.156 L3.016,14.093 L4.805,14.093 L4.805,14.092 Z" id="Shape" fill-rule="nonzero"></path>
                    <path d="M35.327,8.521 C35.327,13.298 32.452,16.513 28.172,16.513 C23.961,16.513 21.017,13.253 21.017,8.611 C21.017,3.97 23.961,0.755 28.218,0.755 C32.406,0.755 35.327,3.947 35.327,8.521 Z M23.711,8.657 C23.711,12.031 25.545,14.295 28.262,14.295 C30.911,14.295 32.632,12.031 32.632,8.566 C32.632,5.215 30.798,2.928 28.104,2.928 C25.478,2.929 23.711,5.216 23.711,8.657 Z" id="Shape" fill-rule="nonzero"></path>
                    <polygon id="Path" points="46.308 3.223 46.308 7.344 51.969 7.344 51.969 9.449 46.308 9.449 46.308 16.197 43.704 16.197 43.704 1.094 52.308 1.094 52.308 3.222 46.308 3.222"></polygon>
                    <path d="M69.039,16.197 L67.839,12.665 L61.906,12.665 L60.706,16.197 L58.057,16.197 L63.559,1.094 L66.253,1.094 L71.755,16.197 L69.039,16.197 Z M64.85,3.88 L62.586,10.605 L67.137,10.605 L64.85,3.88 Z" id="Shape" fill-rule="nonzero"></path>
                    <path d="M87.153,4.038 C86.224,3.313 85.137,2.906 84.073,2.906 C82.533,2.906 81.492,3.699 81.492,4.853 C81.492,5.464 81.763,5.894 82.398,6.302 C82.76,6.505 83.009,6.642 84.277,7.185 C87.47,8.566 88.511,9.721 88.511,11.873 C88.511,14.703 86.473,16.537 83.348,16.537 C81.559,16.537 79.521,15.835 78.48,14.839 L79.657,13.027 C80.903,13.887 82.057,14.295 83.212,14.295 C84.819,14.295 85.861,13.457 85.861,12.121 C85.861,11.035 85.25,10.445 83.257,9.631 C82.487,9.315 81.785,8.997 81.445,8.793 C79.747,7.887 78.932,6.664 78.932,5.012 C78.932,2.498 80.947,0.755 83.89,0.755 C85.588,0.755 87.286,1.366 88.373,2.363 L87.153,4.038 Z" id="Path"></path>
                    <path d="M109.139,14.839 C107.984,15.835 105.856,16.514 103.886,16.514 C99.403,16.514 96.391,13.412 96.391,8.771 C96.391,4.016 99.561,0.755 104.18,0.755 C106.082,0.755 108.007,1.389 109.048,2.363 L107.893,4.129 C106.851,3.404 105.606,2.996 104.293,2.996 C101.191,2.996 99.085,5.261 99.085,8.59 C99.085,12.008 101.078,14.228 104.134,14.228 C105.47,14.228 106.648,13.866 108.029,13.05 L109.139,14.839 Z" id="Path"></path>
                    <path d="M129.924,8.521 C129.924,13.298 127.049,16.513 122.769,16.513 C118.558,16.513 115.614,13.253 115.614,8.611 C115.614,3.97 118.558,0.755 122.815,0.755 C127.003,0.755 129.924,3.947 129.924,8.521 Z M118.309,8.657 C118.309,12.031 120.143,14.295 122.86,14.295 C125.509,14.295 127.23,12.031 127.23,8.566 C127.23,5.215 125.396,2.928 122.702,2.928 C120.075,2.929 118.309,5.216 118.309,8.657 Z" id="Shape" fill-rule="nonzero"></path>
                    <polygon id="Path" points="182.296 16.197 182.296 9.404 176.069 9.404 176.069 16.197 173.442 16.197 173.442 1.094 176.069 1.094 176.069 7.23 182.296 7.23 182.296 1.094 184.922 1.094 184.922 16.197"></polygon>
                    <path d="M203.489,16.197 L202.289,12.665 L196.356,12.665 L195.156,16.197 L192.508,16.197 L198.01,1.094 L200.704,1.094 L206.206,16.197 L203.489,16.197 Z M199.3,3.88 L197.036,10.605 L201.587,10.605 L199.3,3.88 Z" id="Shape" fill-rule="nonzero"></path>
                    <polygon id="Path" points="227.808 16.197 226.767 4.785 222.895 16.197 220.744 16.197 216.759 4.785 215.831 16.197 213.499 16.197 214.971 1.094 217.824 1.094 221.945 12.732 225.908 1.094 228.761 1.094 230.324 16.197"></polygon>
                    <polygon id="Path" points="239.016 16.197 239.016 1.094 241.643 1.094 241.643 16.197"></polygon>
                    <polygon id="Path" points="250.631 16.197 250.631 1.094 253.258 1.094 253.258 14.023 259.326 14.023 259.326 16.197 250.631 16.197"></polygon>
                    <polygon id="Path" points="270.987 3.223 270.987 16.198 268.361 16.198 268.361 3.223 264.081 3.223 264.081 1.095 275.267 1.095 275.267 3.223"></polygon>
                    <path d="M295.896,8.521 C295.896,13.298 293.02,16.513 288.741,16.513 C284.529,16.513 281.586,13.253 281.586,8.611 C281.586,3.97 284.529,0.755 288.786,0.755 C292.975,0.755 295.896,3.947 295.896,8.521 Z M284.279,8.657 C284.279,12.031 286.113,14.295 288.831,14.295 C291.479,14.295 293.201,12.031 293.201,8.566 C293.201,5.215 291.366,2.928 288.672,2.928 C286.046,2.929 284.279,5.216 284.279,8.657 Z" id="Shape" fill-rule="nonzero"></path>
                    <polygon id="Path" points="313.354 16.197 306.606 5.147 306.674 16.197 304.274 16.197 304.274 1.094 306.742 1.094 313.399 12.12 313.332 1.094 315.731 1.094 315.731 16.197"></polygon>
                </g>
                <path d="M151.803,183.49 L151.803,162.115" id="Path" stroke="#FFFFFF" stroke-width="1.4444"></path>
            </g>
        </g>
    </g>
</svg>