<?xml version="1.0" encoding="UTF-8"?>
<svg width="812px" height="144px" viewBox="0 0 812 144" version="1.1" xmlns="http://www.w3.org/2000/svg" xmlns:xlink="http://www.w3.org/1999/xlink">
    <!-- Generator: Sketch 52.6 (67491) - http://www.bohemiancoding.com/sketch -->
    <title>comotion</title>
    <desc>Created with Sketch.</desc>
    <defs>
        <filter x="-1.5%" y="-8.8%" width="103.1%" height="117.6%" filterUnits="objectBoundingBox" id="filter-1">
            <feOffset dx="0" dy="2" in="SourceAlpha" result="shadowOffsetOuter1"></feOffset>
            <feGaussianBlur stdDeviation="2" in="shadowOffsetOuter1" result="shadowBlurOuter1"></feGaussianBlur>
            <feColorMatrix values="0 0 0 0 0   0 0 0 0 0   0 0 0 0 0  0 0 0 0.5 0" type="matrix" in="shadowBlurOuter1" result="shadowMatrixOuter1"></feColorMatrix>
            <feMerge>
                <feMergeNode in="shadowMatrixOuter1"></feMergeNode>
                <feMergeNode in="SourceGraphic"></feMergeNode>
            </feMerge>
        </filter>
        <polygon id="path-2" points="0 0.279126638 670.628838 0.279126638 670.628838 135.964367 0 135.964367"></polygon>
        <polygon id="path-4" points="0.190436714 0.0213799127 20.2100962 0.0213799127 20.2100962 9.99926638 0.190436714 9.99926638"></polygon>
    </defs>
    <g id="Page-1" stroke="none" stroke-width="1" fill="none" fill-rule="evenodd">
        <g id="Artboard" transform="translate(-43.000000, -161.000000)">
            <g id="comotion" filter="url(#filter-1)" transform="translate(47.000000, 163.000000)">
                <g id="Group-9">
                    <mask id="mask-3" fill="white">
                        <use xlink:href="#path-2"></use>
                    </mask>
                    <g id="Clip-2"></g>
                    <path d="M90.6675144,75.9812402 L90.6675144,50.2903057 L73.646638,50.2903057 C69.5933116,47.6855197 65.3221732,45.711441 60.8153694,44.409048 C56.2966632,43.0929956 51.6387002,42.5579039 46.8718312,42.7776419 C40.1410836,42.5579039 33.9179689,43.6138341 28.1887994,45.9448384 C22.4465374,48.2883144 17.5154167,51.5380611 13.3525892,55.7190218 C9.18976166,59.9142358 5.90710881,64.7947948 3.54390822,70.4153362 C1.18070762,76.0222183 0,82.0816419 0,88.6209258 C0,95.2148472 1.14023982,101.412052 3.46118727,107.141869 C5.75594967,112.886533 8.9570718,117.903686 13.0782413,122.16779 C17.1714404,126.443773 22.0620933,129.803389 27.7775751,132.298306 C33.4638964,134.752245 39.7143864,136 46.4873871,136 C53.1496965,136 59.0990585,134.999301 64.3051221,132.997904 C69.4974981,131.009572 74.0037069,128.486742 77.8088705,125.415755 C81.5866588,122.373275 84.6770896,118.986341 87.0402902,115.28524 C89.4034907,111.583546 91.0513634,108.005974 92.0404441,104.578655 L68.6869519,98.176559 C67.9734093,99.5472489 66.9974212,101.014148 65.7197098,102.563004 C64.4562813,104.126114 62.9589726,105.537782 61.2010037,106.785537 C59.4418446,108.019039 57.4226203,109.047057 55.1689208,109.842271 C52.8890363,110.638079 50.3752717,111.131004 47.6276269,111.323424 C44.3300962,111.103686 41.2950111,110.472978 38.5057084,109.376664 C35.7175959,108.279755 33.2859571,106.758218 31.2804204,104.838777 C29.260601,102.905677 27.6389134,100.588926 26.4855811,97.9295022 C25.3042783,95.2831441 24.7276121,92.4324891 24.7276121,89.4292052 C24.7276121,86.0440524 25.2899956,83.0271092 26.4034552,80.3273013 C27.5157246,77.6257118 29.1094419,75.3095546 31.1423538,73.3491354 C33.1615781,71.3744629 35.5932169,69.8529258 38.3968024,68.7566114 C41.1849149,67.6733624 44.3033161,67.2344803 47.7377232,67.4542183 C51.9820814,67.2344803 55.6777439,67.8651878 58.8098327,69.3594061 C61.9419215,70.8536245 64.7847846,73.0605066 67.3134271,75.9812402 L90.6675144,75.9812402" id="Fill-1" fill="#2B6EA1" mask="url(#mask-3)"></path>
                    <path d="M97.0685685,107.526114 C99.3490481,113.187633 102.55017,118.137083 106.67134,122.331703 C110.792509,126.554236 115.765883,129.899004 121.590271,132.339878 C127.400971,134.752245 133.913312,136 141.083849,136 C148.186543,136 154.642943,134.752245 160.467926,132.339878 C166.278626,129.899004 171.252,126.526323 175.42792,122.290725 C179.590152,118.054533 182.791275,113.105083 185.057472,107.443563 C187.338546,101.795703 188.478786,95.7226201 188.478786,89.3062707 C188.478786,82.8768559 187.296888,76.8584105 184.975346,71.2242096 C182.653208,65.5894148 179.397335,60.6678777 175.207728,56.4459389 C171.017525,52.2507249 166.017966,48.9059563 160.206671,46.465083 C154.381688,44.0253974 148.007414,42.7776419 141.083849,42.7776419 C134.118626,42.7776419 127.771728,44.0253974 121.97531,46.465083 C116.177702,48.9059563 111.204924,52.2507249 107.014721,56.4459389 C102.825113,60.6678777 99.5692406,65.5894148 97.20604,71.2242096 C94.8434345,76.8584105 93.6901021,82.8768559 93.6901021,89.3062707 C93.6901021,95.790917 94.8023716,101.877659 97.0685685,107.526114 Z M120.216746,80.1758603 C121.411736,77.4754585 123.073892,75.1587074 125.148462,73.2529258 C127.209344,71.3471441 129.640983,69.8939039 132.388628,68.8932052 C135.135677,67.879441 138.074949,67.4132402 141.207633,67.4542183 C144.40816,67.4132402 147.361714,67.879441 150.109359,68.8932052 C152.857599,69.8939039 155.246984,71.3471441 157.267399,73.2529258 C159.286028,75.1587074 160.866058,77.4754585 162.033673,80.1758603 C163.160225,82.9041747 163.750579,85.9341834 163.750579,89.3062707 C163.750579,92.5833362 163.160225,95.5581135 162.033673,98.2311965 C160.866058,100.931598 159.286028,103.248349 157.267399,105.222428 C155.246984,107.182847 152.857599,108.691319 150.109359,109.732996 C147.361714,110.802585 144.40816,111.323424 141.207633,111.323424 C138.074949,111.323424 135.135677,110.788926 132.388628,109.692017 C129.640983,108.622428 127.209344,107.100891 125.148462,105.126812 C123.073892,103.180052 121.411736,100.876961 120.216746,98.176559 C119.008068,95.4755633 118.417119,92.5138515 118.417119,89.3062707 C118.417119,85.9341834 119.008068,82.9041747 120.216746,80.1758603 Z" id="Fill-3" fill="#2B6EA1" mask="url(#mask-3)"></path>
                    <path d="M190.286745,68.8249083 L203.859526,68.8249083 L203.859526,109.95214 L190.121898,109.95214 L190.121898,133.258026 L245.374135,133.258026 L245.374135,109.95214 L231.334783,109.95214 L231.334783,76.405869 C234.164554,72.9654847 237.145483,70.5792489 240.236509,69.2911092 C243.327535,68.0160349 246.33584,67.4132402 249.261424,67.4542183 C251.446685,67.5225153 253.465315,67.9198253 255.292317,68.6740611 C257.119914,69.4419563 258.699349,70.4978865 260.031811,71.8412576 C261.364272,73.1982882 262.408699,74.8291004 263.163899,76.7348821 C263.92029,78.6412576 264.304139,80.7519301 264.304139,83.1096594 L264.304139,133.258026 L305.517024,133.258026 L305.517024,109.95214 L291.779396,109.95214 L291.779396,79.2167336 C291.779396,78.5717729 291.738928,77.9553188 291.69727,77.3246114 C294.444915,73.7054672 297.191964,71.1559127 299.980672,69.6753537 C302.769975,68.2078603 305.737217,67.4542183 308.882398,67.4542183 C313.443358,67.4542183 316.973578,68.8658865 319.529596,71.6767511 C322.084423,74.4733624 323.375822,78.3532227 323.375822,83.2878253 L323.375822,133.258026 L364.588708,133.258026 L364.588708,109.95214 L350.850484,109.95214 L350.850484,78.1192314 C350.850484,66.5764541 347.952275,57.78931 342.154668,51.7981834 C336.357655,45.7939913 328.060566,42.7776419 317.276491,42.7776419 C314.212246,42.7776419 311.204536,43.1476332 308.291449,43.8329782 C305.365865,44.5319825 302.549187,45.5196157 299.899141,46.7804367 C297.233623,48.0691703 294.718668,49.5497293 292.356657,51.2636856 C289.994052,52.977048 287.891511,54.8828297 286.023446,56.952524 C283.276397,52.1818341 279.525984,48.6309869 274.731144,46.286917 C269.922022,43.9565066 264.18095,42.7776419 257.476388,42.7776419 C252.655363,42.7776419 247.970025,43.7783406 243.423349,45.7939913 C238.862389,47.8084541 234.796566,50.2350742 231.169341,53.0999825 L231.169341,45.5196157 L190.286745,45.5196157 L190.286745,68.8249083" id="Fill-4" fill="#2C343B" mask="url(#mask-3)"></path>
                    <path d="M366.869187,107.526114 C369.148477,113.187633 372.349599,118.137083 376.471959,122.331703 C380.593128,126.554236 385.564717,129.899004 391.389699,132.339878 C397.20159,134.752245 403.713335,136 410.883873,136 C417.985972,136 424.441776,134.752245 430.268545,132.339878 C436.078055,129.899004 441.051429,126.526323 445.227944,122.290725 C449.390771,118.054533 452.591298,113.105083 454.857495,107.443563 C457.137975,101.795703 458.278215,95.7226201 458.278215,89.3062707 C458.278215,82.8768559 457.096317,76.8584105 454.775964,71.2242096 C452.453232,65.5894148 449.197359,60.6678777 445.007751,56.4459389 C440.818144,52.2507249 435.816204,48.9059563 430.006694,46.465083 C424.181116,44.0253974 417.808033,42.7776419 410.883873,42.7776419 C403.919245,42.7776419 397.571751,44.0253974 391.774739,46.465083 C385.976536,48.9059563 381.005543,52.2507249 376.81534,56.4459389 C372.623947,60.6678777 369.369264,65.5894148 367.005469,71.2242096 C364.643458,76.8584105 363.489531,82.8768559 363.489531,89.3062707 C363.489531,95.790917 364.601205,101.877659 366.869187,107.526114 Z M390.016175,80.1758603 C391.211165,77.4754585 392.873916,75.1587074 394.947295,73.2529258 C397.008178,71.3471441 399.440412,69.8939039 402.188056,68.8932052 C404.935701,67.879441 407.874973,67.4132402 411.007657,67.4542183 C414.208779,67.4132402 417.161738,67.879441 419.908788,68.8932052 C422.655837,69.8939039 425.047008,71.3471441 427.066828,73.2529258 C429.086647,75.1587074 430.664891,77.4754585 431.833697,80.1758603 C432.959058,82.9041747 433.551198,85.9341834 433.551198,89.3062707 C433.551198,92.5833362 432.959058,95.5581135 431.833697,98.2311965 C430.664891,100.931598 429.086647,103.248349 427.066828,105.222428 C425.047008,107.182847 422.655837,108.691319 419.908788,109.732996 C417.161738,110.802585 414.208779,111.323424 411.007657,111.323424 C407.874973,111.323424 404.935701,110.788926 402.188056,109.692017 C399.440412,108.622428 397.008178,107.100891 394.947295,105.126812 C392.873916,103.180052 391.211165,100.876961 390.016175,98.176559 C388.806902,95.4755633 388.217143,92.5138515 388.217143,89.3062707 C388.217143,85.9341834 388.806902,82.9041747 390.016175,80.1758603 Z" id="Fill-5" fill="#2C343B" mask="url(#mask-3)"></path>
                    <path d="M495.78175,12.0962795 L468.002984,24.5857118 L467.839923,45.5196157 L454.41711,45.5196157 L454.41711,67.4542183 L468.154739,67.4542183 L467.894674,106.827109 C467.839923,111.707074 468.540373,115.971179 470.010306,119.617048 C471.465957,123.277764 473.445309,126.320838 475.902537,128.761712 C478.349054,131.201991 481.23417,132.997904 484.488258,134.204087 C487.758413,135.396611 491.165445,136 494.751011,136 C499.599411,136 503.817584,135.43759 507.334712,134.368594 C510.85065,133.258026 514.052367,131.804786 516.922605,129.953642 L513.297167,113.339074 C511.648104,113.900297 510.012728,114.380157 508.379138,114.819039 C506.758046,115.244262 504.861415,115.436087 502.719002,115.436087 C501.537104,115.436087 500.506366,115.312559 499.599411,115.010865 C498.707334,114.723424 497.910475,114.188332 497.265371,113.379459 C496.618481,112.584838 496.125131,111.515249 495.78175,110.185537 C495.438369,108.855825 495.286614,107.100891 495.286614,104.921328 L495.464554,67.4542183 L513.488793,67.4542183 L513.488793,45.5196157 L495.629996,45.5196157 L495.78175,12.0962795" id="Fill-6" fill="#2C343B" mask="url(#mask-3)"></path>
                    <path d="M519.259026,68.8249083 L532.996059,68.8249083 L532.996059,109.95214 L519.259026,109.95214 L519.259026,133.258026 L574.208944,133.258026 L574.208944,109.95214 L560.471911,109.95214 L560.471911,45.5196157 L519.259026,45.5196157 L519.259026,68.8249083 Z M532.804432,21.2540087 C533.600101,23.0914934 534.684995,24.6813275 536.100773,26.0246987 C537.502268,27.3953886 539.178111,28.4649782 541.128302,29.2601921 C543.079683,30.056 545.209599,30.4396507 547.503766,30.4396507 C549.741397,30.4396507 551.845128,30.056 553.809602,29.2601921 C555.786573,28.4649782 557.463606,27.3953886 558.808566,26.0246987 C560.169593,24.6813275 561.241395,23.0914934 562.038253,21.2540087 C562.807141,19.4034585 563.218961,17.4566987 563.218961,15.3590917 C563.218961,13.2751441 562.807141,11.3289782 562.038253,9.49208734 C561.241395,7.65460262 560.169593,6.06476856 558.808566,4.6940786 C557.463606,3.33586026 555.786573,2.26745852 553.809602,1.48531004 C551.845128,0.69009607 549.741397,0.279126638 547.503766,0.279126638 C545.209599,0.279126638 543.079683,0.69009607 541.128302,1.48531004 C539.178111,2.26745852 537.502268,3.33586026 536.100773,4.6940786 C534.684995,6.06476856 533.600101,7.65460262 532.804432,9.49208734 C532.007574,11.3289782 531.62313,13.2751441 531.62313,15.3590917 C531.62313,17.4566987 532.007574,19.4034585 532.804432,21.2540087 Z" id="Fill-7" fill="#2C343B" mask="url(#mask-3)"></path>
                    <path d="M579.236474,107.526114 C581.516953,113.187633 584.718075,118.137083 588.83984,122.331703 C592.96101,126.554236 597.935574,129.899004 603.755796,132.339878 C609.570067,134.752245 616.080622,136 623.239852,136 C630.351473,136 636.808468,134.752245 642.622739,132.339878 C648.448912,129.899004 653.41812,126.526323 657.577972,122.290725 C661.755677,118.054533 664.945492,113.105083 667.224782,107.443563 C669.504071,101.795703 670.628838,95.7226201 670.628838,89.3062707 C670.628838,82.8768559 669.450511,76.8584105 667.141466,71.2242096 C664.820518,65.5894148 661.553338,60.6678777 657.375633,56.4459389 C653.186025,52.2507249 648.187061,48.9059563 642.372791,46.465083 C636.552568,44.0253974 630.172939,42.7776419 623.239852,42.7776419 C616.288912,42.7776419 609.939038,44.0253974 604.14262,46.465083 C598.346203,48.9059563 593.357951,52.2507249 589.183221,56.4459389 C584.991828,60.6678777 581.736551,65.5894148 579.373945,71.2242096 C577.01134,76.8584105 575.842534,82.8768559 575.842534,89.3062707 C575.842534,95.790917 576.970277,101.877659 579.236474,107.526114 Z M602.387032,80.1758603 C603.577261,77.4754585 605.225729,75.1587074 607.314582,73.2529258 C609.373679,71.3471441 611.807698,69.8939039 614.557128,68.8932052 C617.300607,67.879441 620.240474,67.4132402 623.376728,67.4542183 C626.578446,67.4132402 629.530215,67.879441 632.279645,68.8932052 C635.023124,69.8939039 637.415485,71.3471441 639.432924,73.2529258 C641.43846,75.1587074 643.033368,77.4754585 644.18789,80.1758603 C645.32456,82.9041747 645.901821,85.9341834 645.901821,89.3062707 C645.901821,92.5833362 645.32456,95.5581135 644.18789,98.2311965 C643.033368,100.931598 641.43846,103.248349 639.432924,105.222428 C637.415485,107.182847 635.023124,108.691319 632.279645,109.732996 C629.530215,110.802585 626.578446,111.323424 623.376728,111.323424 C620.240474,111.323424 617.300607,110.788926 614.557128,109.692017 C611.807698,108.622428 609.373679,107.100891 607.314582,105.126812 C605.225729,103.180052 603.577261,100.876961 602.387032,98.176559 C601.172998,95.4755633 600.571932,92.5138515 600.571932,89.3062707 C600.571932,85.9341834 601.172998,82.9041747 602.387032,80.1758603 Z" id="Fill-8" fill="#2C343B" mask="url(#mask-3)"></path>
                </g>
                <path d="M745.089593,133.258026 L786.301288,133.258026 L786.301288,109.95214 L772.56604,109.95214 L772.56604,78.037869 C772.56604,66.5081572 769.733294,57.7750568 764.06185,51.7708646 C758.402309,45.779738 750.308749,42.7776419 739.828779,42.7776419 C734.829815,42.7776419 730.062946,43.8056594 725.551976,45.8343755 C721.052909,47.877345 716.970422,50.3176245 713.316417,53.1825328 L713.316417,45.5196157 L672.443938,45.5196157 L672.443938,68.8249083 L686.018505,68.8249083 L686.018505,109.95214 L672.283257,109.95214 L672.283257,133.258026 L727.2302,133.258026 L727.2302,109.95214 L713.494952,109.95214 L713.494952,76.5846288 C716.280089,73.0605066 719.184249,70.6617991 722.14792,69.3873188 C725.099689,68.0985852 728.039556,67.4542183 730.96752,67.4542183 C735.210688,67.4542183 738.6445,68.8522271 741.227298,71.635179 C743.798194,74.4187249 745.089593,78.2291004 745.089593,83.1096594 L745.089593,133.258026" id="Fill-10" fill="#2C343B"></path>
                <g id="Group-14" transform="translate(783.766099, 43.353712)">
                    <mask id="mask-5" fill="white">
                        <use xlink:href="#path-4"></use>
                    </mask>
                    <g id="Clip-12"></g>
                    <polyline id="Fill-11" fill="#34383D" mask="url(#mask-5)" points="5.02871947 1.53222707 5.02871947 9.99926638 3.34454478 9.99926638 3.34454478 1.53222707 0.190436714 1.53222707 0.190436714 0.0213799127 8.20068098 0.0213799127 8.20068098 1.53222707 5.02871947 1.53222707"></polyline>
                    <polyline id="Fill-13" fill="#34383D" mask="url(#mask-5)" points="18.6568468 9.99926638 18.6449445 2.54420961 15.4848853 8.95877729 14.383923 8.95877729 11.229815 2.54420961 11.229815 9.99926638 9.64085862 9.99926638 9.64085862 0.0213799127 11.6404441 0.0213799127 14.9433309 6.64974672 18.2283642 0.0213799127 20.2160474 0.0213799127 20.2160474 9.99926638 18.6568468 9.99926638"></polyline>
                </g>
            </g>
        </g>
    </g>
</svg>