<?xml version="1.0" encoding="UTF-8"?>
<svg width="353px" height="120px" viewBox="0 0 353 120" version="1.1" xmlns="http://www.w3.org/2000/svg" xmlns:xlink="http://www.w3.org/1999/xlink">
    <!-- Generator: Sketch 52.2 (67145) - http://www.bohemiancoding.com/sketch -->
    <title>cse_logo</title>
    <desc>Created with Sketch.</desc>
    <g id="Page-1" stroke="none" stroke-width="1" fill="none" fill-rule="evenodd">
        <g id="Artboard" transform="translate(-178.000000, -108.000000)" fill="#FFFFFF">
            <g id="cse_logo" transform="translate(178.000000, 108.000000)">
                <g id="Group" transform="translate(0.000000, 45.000000)">
                    <path d="M31.6,0.158 C40.183,0.158 46.535,2.835 52.371,8.189 C53.143,8.88 53.143,9.917 52.457,10.608 L45.763,17.603 C45.161,18.207 44.218,18.207 43.617,17.603 C40.441,14.753 36.236,13.199 32.03,13.199 C22.331,13.199 15.208,21.317 15.208,30.99 C15.208,40.576 22.417,48.521 32.116,48.521 C36.15,48.521 40.527,47.053 43.617,44.375 C44.219,43.857 45.334,43.857 45.849,44.462 L52.543,51.63 C53.144,52.234 53.058,53.358 52.457,53.962 C46.621,59.662 39.239,62.339 31.601,62.339 C14.435,62.339 0.616,48.608 0.616,31.334 C0.614,14.063 14.434,0.158 31.6,0.158 Z" id="Path"></path>
                    <path d="M59.327,53.271 L63.361,46.103 C64.048,44.98 65.678,45.153 66.279,45.585 C66.623,45.757 72.802,50.335 78.467,50.335 C81.9,50.335 84.389,48.176 84.389,45.152 C84.389,41.525 81.385,38.761 75.548,36.429 C68.167,33.492 58.898,27.706 58.898,17.343 C58.898,8.792 65.506,0.156 78.724,0.156 C87.651,0.156 94.517,4.733 97.092,6.633 C98.122,7.237 97.95,8.792 97.607,9.397 L93.23,16.047 C92.629,16.997 91.084,17.775 90.311,17.17 C89.539,16.738 83.273,11.988 78.038,11.988 C74.948,11.988 72.631,14.06 72.631,16.392 C72.631,19.587 75.206,22.005 81.986,24.769 C88.681,27.447 99.324,32.714 99.324,44.46 C99.324,53.356 91.685,62.337 79.068,62.337 C67.91,62.337 61.73,57.674 59.755,55.688 C58.898,54.826 58.641,54.481 59.327,53.271 Z" id="Path"></path>
                    <path d="M109.799,2.662 C109.799,1.799 110.486,1.021 111.43,1.021 L146.963,1.021 C147.907,1.021 148.594,1.798 148.594,2.662 L148.594,12.076 C148.594,12.939 147.907,13.717 146.963,13.717 L123.189,13.717 L123.189,24.426 L142.758,24.426 C143.616,24.426 144.389,25.203 144.389,26.068 L144.389,35.481 C144.389,36.431 143.617,37.123 142.758,37.123 L123.189,37.123 L123.189,48.782 L146.963,48.782 C147.907,48.782 148.594,49.559 148.594,50.423 L148.594,59.837 C148.594,60.7 147.907,61.478 146.963,61.478 L111.43,61.478 C110.486,61.478 109.799,60.701 109.799,59.837 L109.799,2.662 Z" id="Path"></path>
                </g>
                <g id="Group" transform="translate(208.000000, 45.000000)">
                    <path d="M31.22,0.158 C39.803,0.158 46.155,2.835 51.991,8.189 C52.763,8.88 52.763,9.917 52.077,10.608 L45.383,17.603 C44.781,18.207 43.838,18.207 43.237,17.603 C40.061,14.753 35.856,13.199 31.65,13.199 C21.951,13.199 14.828,21.317 14.828,30.99 C14.828,40.576 22.037,48.521 31.736,48.521 C35.77,48.521 40.147,47.053 43.237,44.375 C43.839,43.857 44.954,43.857 45.469,44.462 L52.163,51.63 C52.764,52.234 52.678,53.358 52.077,53.962 C46.241,59.662 38.859,62.339 31.221,62.339 C14.055,62.339 0.236,48.608 0.236,31.334 C0.234,14.063 14.054,0.158 31.22,0.158 Z" id="Path"></path>
                    <path d="M58.947,53.271 L62.981,46.103 C63.668,44.98 65.298,45.153 65.899,45.585 C66.243,45.757 72.422,50.335 78.087,50.335 C81.52,50.335 84.009,48.176 84.009,45.152 C84.009,41.525 81.005,38.761 75.168,36.429 C67.787,33.492 58.518,27.706 58.518,17.343 C58.518,8.792 65.126,0.156 78.344,0.156 C87.271,0.156 94.137,4.733 96.712,6.633 C97.742,7.237 97.57,8.792 97.227,9.397 L92.85,16.047 C92.249,16.997 90.704,17.775 89.931,17.17 C89.159,16.738 82.893,11.988 77.658,11.988 C74.568,11.988 72.251,14.06 72.251,16.392 C72.251,19.587 74.826,22.005 81.606,24.769 C88.301,27.447 98.944,32.714 98.944,44.46 C98.944,53.356 91.305,62.337 78.688,62.337 C67.53,62.337 61.35,57.674 59.375,55.688 C58.519,54.826 58.261,54.481 58.947,53.271 Z" id="Path"></path>
                    <path d="M117.144,13.717 L104.87,13.717 C103.927,13.717 103.239,12.94 103.239,12.076 L103.239,2.662 C103.239,1.799 103.927,1.021 104.87,1.021 L142.979,1.021 C143.923,1.021 144.61,1.798 144.61,2.662 L144.61,12.076 C144.61,12.939 143.923,13.717 142.979,13.717 L130.705,13.717 L130.705,59.836 C130.705,60.699 129.933,61.477 129.075,61.477 L118.775,61.477 C117.917,61.477 117.144,60.7 117.144,59.836 L117.144,13.717 Z" id="Path"></path>
                </g>
                <rect id="Rectangle" x="175.414" y="33.046" width="6" height="86.358"></rect>
                <g id="Group" transform="translate(86.000000, 0.000000)">
                    <path d="M6.485,2.7 C6.273,1.623 5.415,1.079 4.365,1.079 C2.561,1.079 1.799,2.572 1.799,4.162 C1.799,5.9 2.562,7.351 4.375,7.351 C5.701,7.351 6.465,6.413 6.56,5.154 L7.568,5.154 C7.378,7.052 6.2,8.204 4.292,8.204 C1.938,8.204 0.792,6.455 0.792,4.236 C0.792,2.028 2.043,0.226 4.376,0.226 C5.956,0.226 7.261,1.08 7.494,2.701 L6.485,2.701 L6.485,2.7 Z" id="Path"></path>
                    <path d="M11.038,2.38 C12.777,2.38 13.699,3.649 13.699,5.27 C13.699,6.881 12.777,8.15 11.038,8.15 C9.299,8.15 8.376,6.881 8.376,5.27 C8.376,3.649 9.299,2.38 11.038,2.38 Z M11.038,7.351 C11.981,7.351 12.745,6.604 12.745,5.271 C12.745,3.927 11.981,3.181 11.038,3.181 C10.094,3.181 9.33,3.928 9.33,5.271 C9.33,6.604 10.094,7.351 11.038,7.351 Z" id="Shape" fill-rule="nonzero"></path>
                    <path d="M14.762,2.508 L15.611,2.508 L15.611,3.319 L15.632,3.319 C16.035,2.7 16.651,2.381 17.403,2.381 C18.071,2.381 18.686,2.648 18.909,3.319 C19.28,2.733 19.928,2.381 20.627,2.381 C21.72,2.381 22.451,2.839 22.451,3.981 L22.451,8.023 L21.55,8.023 L21.55,4.407 C21.55,3.724 21.369,3.18 20.489,3.18 C19.62,3.18 19.057,3.735 19.057,4.588 L19.057,8.023 L18.156,8.023 L18.156,4.407 C18.156,3.692 17.933,3.18 17.128,3.18 C16.057,3.18 15.664,4.172 15.664,4.588 L15.664,8.023 L14.763,8.023 L14.763,2.508 L14.762,2.508 Z" id="Path"></path>
                    <path d="M23.811,2.508 L24.66,2.508 L24.66,3.319 L24.681,3.319 C25.084,2.7 25.7,2.381 26.452,2.381 C27.12,2.381 27.735,2.648 27.958,3.319 C28.329,2.733 28.977,2.381 29.676,2.381 C30.769,2.381 31.5,2.839 31.5,3.981 L31.5,8.023 L30.599,8.023 L30.599,4.407 C30.599,3.724 30.418,3.18 29.538,3.18 C28.669,3.18 28.106,3.735 28.106,4.588 L28.106,8.023 L27.205,8.023 L27.205,4.407 C27.205,3.692 26.982,3.18 26.177,3.18 C25.106,3.18 24.713,4.172 24.713,4.588 L24.713,8.023 L23.812,8.023 L23.812,2.508 L23.811,2.508 Z" id="Path"></path>
                    <path d="M37.398,8.022 L36.549,8.022 L36.549,7.147 L36.528,7.147 C36.146,7.83 35.532,8.149 34.747,8.149 C33.305,8.149 32.859,7.317 32.859,6.133 L32.859,2.507 L33.76,2.507 L33.76,6.24 C33.76,6.912 34.184,7.349 34.873,7.349 C35.966,7.349 36.496,6.613 36.496,5.621 L36.496,2.507 L37.397,2.507 L37.397,8.022 L37.398,8.022 Z" id="Path"></path>
                    <path d="M38.758,2.508 L39.607,2.508 L39.607,3.383 L39.628,3.383 C40.01,2.7 40.625,2.381 41.41,2.381 C42.852,2.381 43.298,3.213 43.298,4.397 L43.298,8.023 L42.397,8.023 L42.397,4.29 C42.397,3.618 41.972,3.181 41.284,3.181 C40.191,3.181 39.661,3.917 39.661,4.909 L39.661,8.023 L38.76,8.023 L38.76,2.508 L38.758,2.508 Z" id="Path"></path>
                    <path d="M45.61,1.516 L44.709,1.516 L44.709,0.407 L45.61,0.407 L45.61,1.516 Z M44.709,2.508 L45.61,2.508 L45.61,8.022 L44.709,8.022 L44.709,2.508 Z" id="Shape" fill-rule="nonzero"></path>
                    <path d="M50.733,4.279 C50.594,3.586 50.118,3.18 49.376,3.18 C48.071,3.18 47.668,4.215 47.668,5.334 C47.668,6.348 48.124,7.35 49.27,7.35 C50.14,7.35 50.66,6.838 50.776,6.006 L51.699,6.006 C51.498,7.35 50.66,8.15 49.281,8.15 C47.605,8.15 46.715,6.977 46.715,5.334 C46.715,3.681 47.564,2.38 49.303,2.38 C50.543,2.38 51.54,2.966 51.667,4.278 L50.733,4.278 L50.733,4.279 Z" id="Path"></path>
                    <path d="M57.565,8.001 C57.406,8.097 57.204,8.15 56.918,8.15 C56.451,8.15 56.154,7.894 56.154,7.297 C55.656,7.883 54.988,8.15 54.224,8.15 C53.227,8.15 52.411,7.702 52.411,6.604 C52.411,5.356 53.334,5.089 54.266,4.908 C55.263,4.716 56.112,4.78 56.112,4.097 C56.112,3.307 55.465,3.18 54.892,3.18 C54.128,3.18 53.567,3.415 53.524,4.225 L52.623,4.225 C52.676,2.86 53.727,2.38 54.945,2.38 C55.931,2.38 57.003,2.604 57.003,3.894 L57.003,6.731 C57.003,7.158 57.003,7.35 57.289,7.35 C57.363,7.35 57.448,7.339 57.565,7.297 L57.565,8.001 Z M56.102,5.175 C55.752,5.431 55.074,5.442 54.469,5.548 C53.875,5.655 53.365,5.868 53.365,6.54 C53.365,7.137 53.875,7.351 54.426,7.351 C55.614,7.351 56.102,6.604 56.102,6.103 L56.102,5.175 Z" id="Shape" fill-rule="nonzero"></path>
                    <path d="M59.656,2.508 L60.749,2.508 L60.749,3.308 L59.656,3.308 L59.656,6.732 C59.656,7.148 59.773,7.223 60.335,7.223 L60.749,7.223 L60.749,8.023 L60.06,8.023 C59.126,8.023 58.755,7.831 58.755,6.818 L58.755,3.309 L57.822,3.309 L57.822,2.509 L58.755,2.509 L58.755,0.856 L59.656,0.856 L59.656,2.508 Z" id="Path"></path>
                    <path d="M62.701,1.516 L61.8,1.516 L61.8,0.407 L62.701,0.407 L62.701,1.516 Z M61.8,2.508 L62.701,2.508 L62.701,8.022 L61.8,8.022 L61.8,2.508 Z" id="Shape" fill-rule="nonzero"></path>
                    <path d="M66.468,2.38 C68.207,2.38 69.129,3.649 69.129,5.27 C69.129,6.881 68.207,8.15 66.468,8.15 C64.729,8.15 63.806,6.881 63.806,5.27 C63.806,3.649 64.729,2.38 66.468,2.38 Z M66.468,7.351 C67.411,7.351 68.175,6.604 68.175,5.271 C68.175,3.927 67.411,3.181 66.468,3.181 C65.524,3.181 64.76,3.928 64.76,5.271 C64.76,6.604 65.523,7.351 66.468,7.351 Z" id="Shape" fill-rule="nonzero"></path>
                    <path d="M70.191,2.508 L71.04,2.508 L71.04,3.383 L71.061,3.383 C71.443,2.7 72.058,2.381 72.843,2.381 C74.285,2.381 74.731,3.213 74.731,4.397 L74.731,8.023 L73.83,8.023 L73.83,4.29 C73.83,3.618 73.405,3.181 72.717,3.181 C71.624,3.181 71.094,3.917 71.094,4.909 L71.094,8.023 L70.193,8.023 L70.193,2.508 L70.191,2.508 Z" id="Path"></path>
                    <path d="M76.642,6.284 C76.673,7.095 77.373,7.351 78.116,7.351 C78.679,7.351 79.442,7.223 79.442,6.53 C79.442,5.826 78.55,5.709 77.649,5.506 C76.758,5.303 75.857,5.005 75.857,3.949 C75.857,2.84 76.95,2.381 77.904,2.381 C79.113,2.381 80.078,2.765 80.152,4.109 L79.251,4.109 C79.188,3.405 78.572,3.181 77.979,3.181 C77.438,3.181 76.812,3.33 76.812,3.885 C76.812,4.535 77.767,4.642 78.605,4.845 C79.506,5.048 80.397,5.346 80.397,6.413 C80.397,7.725 79.177,8.151 78.064,8.151 C76.834,8.151 75.794,7.65 75.742,6.284 L76.642,6.284 Z" id="Path"></path>
                    <path d="M5.542,13.729 C5.426,12.641 4.704,12.172 3.665,12.172 C2.816,12.172 1.968,12.481 1.968,13.473 C1.968,14.411 3.177,14.55 4.397,14.827 C5.606,15.104 6.815,15.531 6.815,17.024 C6.815,18.645 5.235,19.295 3.856,19.295 C2.16,19.295 0.728,18.463 0.728,16.607 L1.682,16.607 C1.682,17.887 2.743,18.441 3.888,18.441 C4.8,18.441 5.807,18.153 5.807,17.054 C5.807,16.009 4.598,15.827 3.389,15.561 C2.181,15.294 0.961,14.942 0.961,13.545 C0.961,11.998 2.329,11.316 3.707,11.316 C5.256,11.316 6.433,12.052 6.496,13.727 L5.542,13.727 L5.542,13.729 Z" id="Path"></path>
                    <path d="M12.564,17.366 C12.32,18.582 11.451,19.243 10.22,19.243 C8.47,19.243 7.643,18.027 7.59,16.342 C7.59,14.689 8.672,13.473 10.167,13.473 C12.107,13.473 12.701,15.297 12.648,16.63 L8.544,16.63 C8.513,17.59 9.054,18.443 10.252,18.443 C10.994,18.443 11.514,18.08 11.673,17.366 L12.564,17.366 Z M11.695,15.83 C11.652,14.966 11.006,14.273 10.114,14.273 C9.171,14.273 8.608,14.987 8.545,15.83 L11.695,15.83 Z" id="Shape" fill-rule="nonzero"></path>
                    <path d="M17.308,15.371 C17.169,14.678 16.693,14.272 15.951,14.272 C14.646,14.272 14.243,15.307 14.243,16.426 C14.243,17.44 14.699,18.442 15.845,18.442 C16.715,18.442 17.235,17.93 17.351,17.098 L18.274,17.098 C18.073,18.442 17.235,19.242 15.856,19.242 C14.18,19.242 13.29,18.069 13.29,16.426 C13.29,14.773 14.139,13.472 15.878,13.472 C17.118,13.472 18.115,14.058 18.242,15.37 L17.308,15.37 L17.308,15.371 Z" id="Path"></path>
                    <path d="M23.821,19.115 L22.972,19.115 L22.972,18.24 L22.951,18.24 C22.569,18.923 21.955,19.242 21.17,19.242 C19.728,19.242 19.282,18.41 19.282,17.226 L19.282,13.6 L20.183,13.6 L20.183,17.333 C20.183,18.005 20.607,18.442 21.296,18.442 C22.389,18.442 22.919,17.706 22.919,16.714 L22.919,13.6 L23.82,13.6 L23.82,19.115 L23.821,19.115 Z" id="Path"></path>
                    <path d="M25.148,13.601 L25.997,13.601 L25.997,14.764 L26.018,14.764 C26.453,13.879 27.057,13.441 28.033,13.473 L28.033,14.433 C26.58,14.433 26.05,15.265 26.05,16.662 L26.05,19.115 L25.149,19.115 L25.149,13.601 L25.148,13.601 Z" id="Path"></path>
                    <path d="M29.667,12.608 L28.766,12.608 L28.766,11.5 L29.667,11.5 L29.667,12.608 Z M28.766,13.601 L29.667,13.601 L29.667,19.115 L28.766,19.115 L28.766,13.601 Z" id="Shape" fill-rule="nonzero"></path>
                    <path d="M32.318,13.601 L33.411,13.601 L33.411,14.401 L32.318,14.401 L32.318,17.825 C32.318,18.241 32.435,18.316 32.997,18.316 L33.411,18.316 L33.411,19.116 L32.722,19.116 C31.788,19.116 31.417,18.924 31.417,17.911 L31.417,14.4 L30.484,14.4 L30.484,13.6 L31.417,13.6 L31.417,11.947 L32.318,11.947 L32.318,13.601 Z" id="Path"></path>
                    <path d="M36.562,19.851 C36.149,20.928 35.778,21.323 34.972,21.323 C34.759,21.323 34.547,21.302 34.346,21.227 L34.346,20.395 C34.516,20.448 34.696,20.523 34.876,20.523 C35.247,20.523 35.448,20.342 35.618,20.022 L35.989,19.083 L33.815,13.601 L34.833,13.601 L36.435,18.113 L36.456,18.113 L37.993,13.601 L38.948,13.601 L36.562,19.851 Z" id="Path"></path>
                    <polygon id="Path" points="42.812 11.5 48.041 11.5 48.041 12.353 43.82 12.353 43.82 14.774 47.755 14.774 47.755 15.627 43.82 15.627 43.82 18.262 48.072 18.262 48.072 19.115 42.812 19.115"></polygon>
                    <path d="M49.696,17.376 C49.727,18.187 50.427,18.443 51.17,18.443 C51.733,18.443 52.496,18.315 52.496,17.622 C52.496,16.918 51.604,16.801 50.703,16.598 C49.812,16.395 48.911,16.097 48.911,15.041 C48.911,13.932 50.004,13.473 50.958,13.473 C52.167,13.473 53.132,13.857 53.206,15.201 L52.305,15.201 C52.242,14.497 51.626,14.273 51.033,14.273 C50.492,14.273 49.866,14.422 49.866,14.977 C49.866,15.627 50.821,15.734 51.659,15.937 C52.56,16.14 53.451,16.438 53.451,17.505 C53.451,18.817 52.231,19.243 51.118,19.243 C49.888,19.243 48.848,18.742 48.796,17.376 L49.696,17.376 Z" id="Path"></path>
                    <path d="M55.7,13.601 L56.793,13.601 L56.793,14.401 L55.7,14.401 L55.7,17.825 C55.7,18.241 55.817,18.316 56.379,18.316 L56.793,18.316 L56.793,19.116 L56.104,19.116 C55.17,19.116 54.799,18.924 54.799,17.911 L54.799,14.4 L53.866,14.4 L53.866,13.6 L54.799,13.6 L54.799,11.947 L55.7,11.947 L55.7,13.601 Z" id="Path"></path>
                    <path d="M62.648,19.093 C62.489,19.189 62.287,19.242 62.001,19.242 C61.534,19.242 61.237,18.986 61.237,18.389 C60.739,18.975 60.071,19.242 59.307,19.242 C58.31,19.242 57.494,18.794 57.494,17.696 C57.494,16.448 58.417,16.181 59.349,16 C60.346,15.808 61.195,15.872 61.195,15.189 C61.195,14.4 60.548,14.272 59.975,14.272 C59.211,14.272 58.65,14.506 58.607,15.317 L57.706,15.317 C57.759,13.952 58.809,13.472 60.028,13.472 C61.014,13.472 62.086,13.696 62.086,14.986 L62.086,17.823 C62.086,18.25 62.086,18.442 62.372,18.442 C62.446,18.442 62.531,18.431 62.648,18.389 L62.648,19.093 Z M61.185,16.267 C60.835,16.523 60.157,16.534 59.552,16.64 C58.958,16.747 58.448,16.96 58.448,17.632 C58.448,18.229 58.958,18.443 59.509,18.443 C60.697,18.443 61.185,17.696 61.185,17.195 L61.185,16.267 Z" id="Shape" fill-rule="nonzero"></path>
                    <path d="M63.52,11.5 L64.421,11.5 L64.421,14.348 L64.442,14.348 C64.739,13.74 65.439,13.473 66.192,13.473 C67.879,13.473 68.716,14.817 68.716,16.374 C68.716,17.931 67.889,19.243 66.213,19.243 C65.65,19.243 64.845,19.03 64.442,18.379 L64.421,18.379 L64.421,19.115 L63.52,19.115 L63.52,11.5 Z M66.064,14.272 C64.855,14.272 64.388,15.317 64.388,16.352 C64.388,17.44 64.876,18.443 66.117,18.443 C67.347,18.443 67.761,17.387 67.761,16.31 C67.761,15.275 67.23,14.272 66.064,14.272 Z" id="Shape" fill-rule="nonzero"></path>
                    <polygon id="Path" points="69.831 11.5 70.732 11.5 70.732 19.115 69.831 19.115"></polygon>
                    <path d="M73.088,12.608 L72.187,12.608 L72.187,11.5 L73.088,11.5 L73.088,12.608 Z M72.187,13.601 L73.088,13.601 L73.088,19.115 L72.187,19.115 L72.187,13.601 Z" id="Shape" fill-rule="nonzero"></path>
                    <path d="M75.041,17.376 C75.072,18.187 75.772,18.443 76.515,18.443 C77.078,18.443 77.841,18.315 77.841,17.622 C77.841,16.918 76.949,16.801 76.048,16.598 C75.157,16.395 74.256,16.097 74.256,15.041 C74.256,13.932 75.349,13.473 76.303,13.473 C77.512,13.473 78.477,13.857 78.551,15.201 L77.65,15.201 C77.587,14.497 76.971,14.273 76.378,14.273 C75.837,14.273 75.211,14.422 75.211,14.977 C75.211,15.627 76.166,15.734 77.004,15.937 C77.905,16.14 78.796,16.438 78.796,17.505 C78.796,18.817 77.576,19.243 76.463,19.243 C75.233,19.243 74.193,18.742 74.141,17.376 L75.041,17.376 Z" id="Path"></path>
                    <path d="M79.794,11.5 L80.695,11.5 L80.695,14.412 L80.716,14.412 C81.013,13.751 81.787,13.474 82.445,13.474 C83.887,13.474 84.333,14.306 84.333,15.49 L84.333,19.116 L83.432,19.116 L83.432,15.383 C83.432,14.711 83.007,14.274 82.319,14.274 C81.226,14.274 80.696,15.01 80.696,16.002 L80.696,19.116 L79.795,19.116 L79.795,11.5 L79.794,11.5 Z" id="Path"></path>
                    <path d="M85.692,13.601 L86.541,13.601 L86.541,14.412 L86.562,14.412 C86.965,13.793 87.581,13.474 88.333,13.474 C89.001,13.474 89.616,13.741 89.839,14.412 C90.21,13.825 90.858,13.474 91.557,13.474 C92.65,13.474 93.381,13.932 93.381,15.074 L93.381,19.116 L92.48,19.116 L92.48,15.5 C92.48,14.817 92.299,14.273 91.419,14.273 C90.55,14.273 89.987,14.828 89.987,15.681 L89.987,19.116 L89.086,19.116 L89.086,15.5 C89.086,14.785 88.863,14.273 88.058,14.273 C86.987,14.273 86.594,15.265 86.594,15.681 L86.594,19.116 L85.693,19.116 L85.693,13.601 L85.692,13.601 Z" id="Path"></path>
                    <path d="M99.418,17.366 C99.174,18.582 98.305,19.243 97.074,19.243 C95.324,19.243 94.497,18.027 94.444,16.342 C94.444,14.689 95.526,13.473 97.021,13.473 C98.961,13.473 99.555,15.297 99.502,16.63 L95.398,16.63 C95.367,17.59 95.908,18.443 97.106,18.443 C97.848,18.443 98.368,18.08 98.527,17.366 L99.418,17.366 Z M98.549,15.83 C98.506,14.966 97.86,14.273 96.968,14.273 C96.025,14.273 95.462,14.987 95.399,15.83 L98.549,15.83 Z" id="Shape" fill-rule="nonzero"></path>
                    <path d="M100.438,13.601 L101.287,13.601 L101.287,14.476 L101.308,14.476 C101.69,13.793 102.305,13.474 103.09,13.474 C104.532,13.474 104.978,14.306 104.978,15.49 L104.978,19.116 L104.077,19.116 L104.077,15.383 C104.077,14.711 103.652,14.274 102.964,14.274 C101.871,14.274 101.341,15.01 101.341,16.002 L101.341,19.116 L100.44,19.116 L100.44,13.601 L100.438,13.601 Z" id="Path"></path>
                    <path d="M107.588,13.601 L108.681,13.601 L108.681,14.401 L107.588,14.401 L107.588,17.825 C107.588,18.241 107.705,18.316 108.267,18.316 L108.681,18.316 L108.681,19.116 L107.992,19.116 C107.058,19.116 106.687,18.924 106.687,17.911 L106.687,14.4 L105.754,14.4 L105.754,13.6 L106.687,13.6 L106.687,11.947 L107.588,11.947 L107.588,13.601 Z" id="Path"></path>
                </g>
                <g id="Group" transform="translate(211.000000, 1.000000)">
                    <path d="M6.542,3.446 C6.33,2.369 5.472,1.825 4.422,1.825 C2.618,1.825 1.856,3.318 1.856,4.908 C1.856,6.646 2.619,8.097 4.432,8.097 C5.758,8.097 6.522,7.159 6.617,5.9 L7.625,5.9 C7.435,7.798 6.257,8.95 4.349,8.95 C1.995,8.95 0.849,7.201 0.849,4.982 C0.849,2.774 2.1,0.972 4.433,0.972 C6.013,0.972 7.318,1.826 7.551,3.447 L6.542,3.447 L6.542,3.446 Z" id="Path"></path>
                    <path d="M13.406,7.02 C13.162,8.236 12.293,8.897 11.062,8.897 C9.312,8.897 8.485,7.681 8.432,5.996 C8.432,4.343 9.514,3.127 11.009,3.127 C12.949,3.127 13.543,4.951 13.49,6.284 L9.386,6.284 C9.355,7.244 9.896,8.097 11.094,8.097 C11.836,8.097 12.356,7.734 12.515,7.02 L13.406,7.02 Z M12.537,5.483 C12.494,4.619 11.848,3.926 10.956,3.926 C10.013,3.926 9.45,4.64 9.387,5.483 L12.537,5.483 Z" id="Shape" fill-rule="nonzero"></path>
                    <path d="M14.427,3.254 L15.276,3.254 L15.276,4.129 L15.297,4.129 C15.679,3.446 16.294,3.127 17.079,3.127 C18.521,3.127 18.967,3.959 18.967,5.143 L18.967,8.769 L18.066,8.769 L18.066,5.036 C18.066,4.364 17.641,3.927 16.953,3.927 C15.86,3.927 15.33,4.663 15.33,5.655 L15.33,8.769 L14.429,8.769 L14.429,3.254 L14.427,3.254 Z" id="Path"></path>
                    <path d="M21.576,3.254 L22.669,3.254 L22.669,4.054 L21.576,4.054 L21.576,7.478 C21.576,7.894 21.693,7.969 22.255,7.969 L22.669,7.969 L22.669,8.769 L21.98,8.769 C21.046,8.769 20.675,8.577 20.675,7.564 L20.675,4.055 L19.742,4.055 L19.742,3.255 L20.675,3.255 L20.675,1.602 L21.576,1.602 L21.576,3.254 Z" id="Path"></path>
                    <path d="M23.635,3.254 L24.484,3.254 L24.484,4.417 L24.505,4.417 C24.94,3.532 25.544,3.094 26.52,3.126 L26.52,4.086 C25.067,4.086 24.537,4.918 24.537,6.315 L24.537,8.768 L23.636,8.768 L23.636,3.254 L23.635,3.254 Z" id="Path"></path>
                    <path d="M31.686,7.02 C31.442,8.236 30.573,8.897 29.342,8.897 C27.592,8.897 26.765,7.681 26.712,5.996 C26.712,4.343 27.794,3.127 29.289,3.127 C31.229,3.127 31.823,4.951 31.77,6.284 L27.666,6.284 C27.635,7.244 28.176,8.097 29.374,8.097 C30.116,8.097 30.636,7.734 30.795,7.02 L31.686,7.02 Z M30.816,5.483 C30.773,4.619 30.127,3.926 29.235,3.926 C28.292,3.926 27.729,4.64 27.666,5.483 L30.816,5.483 Z" id="Shape" fill-rule="nonzero"></path>
                    <path d="M40.554,8.769 L39.653,8.769 L39.653,8.022 L39.632,8.022 C39.335,8.63 38.635,8.897 37.882,8.897 C36.196,8.897 35.359,7.553 35.359,5.996 C35.359,4.438 36.186,3.127 37.862,3.127 C38.424,3.127 39.23,3.34 39.633,3.991 L39.654,3.991 L39.654,1.154 L40.555,1.154 L40.555,8.769 L40.554,8.769 Z M38.009,8.097 C39.218,8.097 39.685,7.052 39.685,6.017 C39.685,4.929 39.197,3.927 37.956,3.927 C36.727,3.927 36.312,4.983 36.312,6.06 C36.312,7.094 36.842,8.097 38.009,8.097 Z" id="Shape" fill-rule="nonzero"></path>
                    <path d="M46.622,7.02 C46.378,8.236 45.509,8.897 44.278,8.897 C42.528,8.897 41.701,7.681 41.648,5.996 C41.648,4.343 42.73,3.127 44.225,3.127 C46.165,3.127 46.759,4.951 46.706,6.284 L42.602,6.284 C42.571,7.244 43.112,8.097 44.31,8.097 C45.052,8.097 45.572,7.734 45.731,7.02 L46.622,7.02 Z M45.753,5.483 C45.71,4.619 45.064,3.926 44.172,3.926 C43.229,3.926 42.666,4.64 42.603,5.483 L45.753,5.483 Z" id="Shape" fill-rule="nonzero"></path>
                    <polygon id="Path" points="50.645 1.153 51.546 1.153 51.546 8.768 50.645 8.768"></polygon>
                    <path d="M57.805,8.747 C57.646,8.843 57.444,8.896 57.158,8.896 C56.691,8.896 56.394,8.64 56.394,8.043 C55.896,8.629 55.228,8.896 54.464,8.896 C53.467,8.896 52.651,8.448 52.651,7.35 C52.651,6.102 53.574,5.835 54.506,5.654 C55.503,5.462 56.352,5.526 56.352,4.843 C56.352,4.053 55.705,3.926 55.132,3.926 C54.368,3.926 53.807,4.161 53.764,4.971 L52.863,4.971 C52.916,3.606 53.966,3.126 55.185,3.126 C56.171,3.126 57.243,3.35 57.243,4.64 L57.243,7.477 C57.243,7.904 57.243,8.096 57.529,8.096 C57.603,8.096 57.688,8.085 57.805,8.043 L57.805,8.747 Z M56.341,5.921 C55.991,6.177 55.313,6.188 54.708,6.294 C54.114,6.401 53.604,6.614 53.604,7.286 C53.604,7.883 54.114,8.097 54.665,8.097 C55.853,8.097 56.341,7.35 56.341,6.849 L56.341,5.921 Z" id="Shape" fill-rule="nonzero"></path>
                    <path d="M62.146,7.03 C62.177,7.841 62.877,8.097 63.62,8.097 C64.183,8.097 64.946,7.969 64.946,7.276 C64.946,6.572 64.054,6.455 63.153,6.252 C62.262,6.049 61.361,5.751 61.361,4.695 C61.361,3.586 62.454,3.127 63.408,3.127 C64.617,3.127 65.582,3.511 65.656,4.855 L64.755,4.855 C64.692,4.151 64.076,3.927 63.483,3.927 C62.942,3.927 62.316,4.076 62.316,4.631 C62.316,5.281 63.271,5.388 64.109,5.591 C65.01,5.794 65.901,6.092 65.901,7.159 C65.901,8.471 64.681,8.897 63.568,8.897 C62.338,8.897 61.298,8.396 61.246,7.03 L62.146,7.03 Z" id="Path"></path>
                    <path d="M71.575,7.02 C71.331,8.236 70.462,8.897 69.231,8.897 C67.481,8.897 66.654,7.681 66.601,5.996 C66.601,4.343 67.683,3.127 69.178,3.127 C71.118,3.127 71.712,4.951 71.659,6.284 L67.555,6.284 C67.524,7.244 68.065,8.097 69.263,8.097 C70.005,8.097 70.525,7.734 70.684,7.02 L71.575,7.02 Z M70.706,5.483 C70.663,4.619 70.017,3.926 69.125,3.926 C68.182,3.926 67.619,4.64 67.556,5.483 L70.706,5.483 Z M69.338,0.972 L70.493,0.972 L69.104,2.497 L68.425,2.497 L69.338,0.972 Z" id="Shape" fill-rule="nonzero"></path>
                    <path d="M76.318,5.025 C76.179,4.332 75.703,3.926 74.961,3.926 C73.656,3.926 73.253,4.961 73.253,6.08 C73.253,7.094 73.709,8.096 74.855,8.096 C75.725,8.096 76.245,7.584 76.361,6.752 L77.284,6.752 C77.083,8.096 76.245,8.896 74.866,8.896 C73.19,8.896 72.3,7.723 72.3,6.08 C72.3,4.427 73.149,3.126 74.888,3.126 C76.128,3.126 77.125,3.712 77.252,5.024 L76.318,5.024 L76.318,5.025 Z" id="Path"></path>
                    <path d="M82.832,8.769 L81.983,8.769 L81.983,7.894 L81.962,7.894 C81.58,8.577 80.966,8.896 80.181,8.896 C78.739,8.896 78.293,8.064 78.293,6.88 L78.293,3.254 L79.194,3.254 L79.194,6.987 C79.194,7.659 79.618,8.096 80.307,8.096 C81.4,8.096 81.93,7.36 81.93,6.368 L81.93,3.254 L82.831,3.254 L82.831,8.769 L82.832,8.769 Z" id="Path"></path>
                    <path d="M84.159,3.254 L85.008,3.254 L85.008,4.417 L85.029,4.417 C85.464,3.532 86.068,3.094 87.044,3.126 L87.044,4.086 C85.591,4.086 85.061,4.918 85.061,6.315 L85.061,8.768 L84.16,8.768 L84.16,3.254 L84.159,3.254 Z" id="Path"></path>
                    <path d="M88.678,2.262 L87.777,2.262 L87.777,1.153 L88.678,1.153 L88.678,2.262 Z M87.776,3.254 L88.677,3.254 L88.677,8.768 L87.776,8.768 L87.776,3.254 Z" id="Shape" fill-rule="nonzero"></path>
                    <path d="M91.329,3.254 L92.422,3.254 L92.422,4.054 L91.329,4.054 L91.329,7.478 C91.329,7.894 91.446,7.969 92.008,7.969 L92.422,7.969 L92.422,8.769 L91.733,8.769 C90.799,8.769 90.428,8.577 90.428,7.564 L90.428,4.055 L89.495,4.055 L89.495,3.255 L90.428,3.255 L90.428,1.602 L91.329,1.602 L91.329,3.254 Z" id="Path"></path>
                    <path d="M98.097,7.02 C97.853,8.236 96.984,8.897 95.753,8.897 C94.003,8.897 93.176,7.681 93.123,5.996 C93.123,4.343 94.205,3.127 95.7,3.127 C97.64,3.127 98.234,4.951 98.181,6.284 L94.077,6.284 C94.046,7.244 94.587,8.097 95.785,8.097 C96.527,8.097 97.047,7.734 97.206,7.02 L98.097,7.02 Z M97.228,5.483 C97.185,4.619 96.539,3.926 95.647,3.926 C94.704,3.926 94.141,4.64 94.078,5.483 L97.228,5.483 Z M95.859,0.972 L97.014,0.972 L95.625,2.497 L94.946,2.497 L95.859,0.972 Z" id="Shape" fill-rule="nonzero"></path>
                    <path d="M5.97,19.861 L5.069,19.861 L5.069,19.114 L5.048,19.114 C4.751,19.722 4.051,19.989 3.298,19.989 C1.612,19.989 0.775,18.645 0.775,17.088 C0.775,15.53 1.602,14.219 3.278,14.219 C3.84,14.219 4.646,14.432 5.049,15.083 L5.07,15.083 L5.07,12.246 L5.971,12.246 L5.971,19.861 L5.97,19.861 Z M3.425,19.189 C4.634,19.189 5.101,18.144 5.101,17.109 C5.101,16.021 4.613,15.019 3.372,15.019 C2.143,15.019 1.728,16.075 1.728,17.152 C1.728,18.187 2.258,19.189 3.425,19.189 Z" id="Shape" fill-rule="nonzero"></path>
                    <path d="M12.038,18.112 C11.794,19.328 10.925,19.989 9.694,19.989 C7.944,19.989 7.117,18.773 7.064,17.088 C7.064,15.435 8.146,14.219 9.641,14.219 C11.581,14.219 12.175,16.043 12.122,17.376 L8.018,17.376 C7.987,18.336 8.528,19.189 9.726,19.189 C10.468,19.189 10.988,18.826 11.147,18.112 L12.038,18.112 Z M11.169,16.576 C11.126,15.712 10.48,15.019 9.588,15.019 C8.645,15.019 8.082,15.733 8.019,16.576 L11.169,16.576 Z" id="Shape" fill-rule="nonzero"></path>
                    <path d="M13.609,18.122 C13.64,18.933 14.34,19.189 15.083,19.189 C15.646,19.189 16.409,19.061 16.409,18.368 C16.409,17.664 15.517,17.547 14.616,17.344 C13.725,17.141 12.824,16.843 12.824,15.787 C12.824,14.678 13.917,14.219 14.871,14.219 C16.08,14.219 17.045,14.603 17.119,15.947 L16.218,15.947 C16.155,15.243 15.539,15.019 14.946,15.019 C14.405,15.019 13.779,15.168 13.779,15.723 C13.779,16.373 14.734,16.48 15.572,16.683 C16.473,16.886 17.364,17.184 17.364,18.251 C17.364,19.563 16.144,19.989 15.031,19.989 C13.801,19.989 12.761,19.488 12.709,18.122 L13.609,18.122 Z" id="Path"></path>
                    <path d="M22.563,14.347 L23.656,14.347 L23.656,15.147 L22.563,15.147 L22.563,18.571 C22.563,18.987 22.68,19.062 23.242,19.062 L23.656,19.062 L23.656,19.862 L22.967,19.862 C22.033,19.862 21.662,19.67 21.662,18.657 L21.662,15.148 L20.729,15.148 L20.729,14.348 L21.662,14.348 L21.662,12.695 L22.563,12.695 L22.563,14.347 Z" id="Path"></path>
                    <path d="M29.33,18.112 C29.086,19.328 28.217,19.989 26.986,19.989 C25.236,19.989 24.409,18.773 24.356,17.088 C24.356,15.435 25.438,14.219 26.933,14.219 C28.873,14.219 29.467,16.043 29.414,17.376 L25.31,17.376 C25.279,18.336 25.82,19.189 27.018,19.189 C27.76,19.189 28.28,18.826 28.439,18.112 L29.33,18.112 Z M28.461,16.576 C28.418,15.712 27.772,15.019 26.88,15.019 C25.937,15.019 25.374,15.733 25.311,16.576 L28.461,16.576 Z M27.093,12.064 L28.248,12.064 L26.859,13.589 L26.18,13.589 L27.093,12.064 Z" id="Shape" fill-rule="nonzero"></path>
                    <polygon id="Path" points="30.403 12.246 31.304 12.246 31.304 19.861 30.403 19.861"></polygon>
                    <path d="M37.383,18.112 C37.139,19.328 36.27,19.989 35.039,19.989 C33.289,19.989 32.462,18.773 32.409,17.088 C32.409,15.435 33.491,14.219 34.986,14.219 C36.926,14.219 37.52,16.043 37.467,17.376 L33.363,17.376 C33.332,18.336 33.873,19.189 35.071,19.189 C35.813,19.189 36.333,18.826 36.492,18.112 L37.383,18.112 Z M36.514,16.576 C36.471,15.712 35.825,15.019 34.933,15.019 C33.99,15.019 33.427,15.733 33.364,16.576 L36.514,16.576 Z M35.146,12.064 L36.301,12.064 L34.912,13.589 L34.233,13.589 L35.146,12.064 Z" id="Shape" fill-rule="nonzero"></path>
                    <path d="M42.126,16.117 C41.987,15.424 41.511,15.018 40.769,15.018 C39.464,15.018 39.061,16.053 39.061,17.172 C39.061,18.186 39.517,19.188 40.663,19.188 C41.533,19.188 42.053,18.676 42.169,17.844 L43.092,17.844 C42.891,19.188 42.053,19.988 40.674,19.988 C38.998,19.988 38.108,18.815 38.108,17.172 C38.108,15.519 38.957,14.218 40.696,14.218 C41.936,14.218 42.933,14.804 43.06,16.116 L42.126,16.116 L42.126,16.117 Z" id="Path"></path>
                    <path d="M46.466,14.219 C48.205,14.219 49.127,15.488 49.127,17.109 C49.127,18.72 48.205,19.989 46.466,19.989 C44.727,19.989 43.804,18.72 43.804,17.109 C43.804,15.488 44.727,14.219 46.466,14.219 Z M46.466,19.189 C47.409,19.189 48.173,18.442 48.173,17.109 C48.173,15.765 47.409,15.019 46.466,15.019 C45.522,15.019 44.758,15.766 44.758,17.109 C44.758,18.442 45.521,19.189 46.466,19.189 Z" id="Shape" fill-rule="nonzero"></path>
                    <path d="M50.189,14.347 L51.038,14.347 L51.038,15.158 L51.059,15.158 C51.462,14.539 52.078,14.22 52.83,14.22 C53.498,14.22 54.113,14.487 54.336,15.158 C54.707,14.571 55.355,14.22 56.054,14.22 C57.147,14.22 57.878,14.678 57.878,15.82 L57.878,19.862 L56.977,19.862 L56.977,16.246 C56.977,15.563 56.796,15.019 55.916,15.019 C55.047,15.019 54.484,15.574 54.484,16.427 L54.484,19.862 L53.583,19.862 L53.583,16.246 C53.583,15.531 53.36,15.019 52.555,15.019 C51.484,15.019 51.091,16.011 51.091,16.427 L51.091,19.862 L50.19,19.862 L50.19,14.347 L50.189,14.347 Z" id="Path"></path>
                    <path d="M59.238,14.347 L60.087,14.347 L60.087,15.158 L60.108,15.158 C60.511,14.539 61.127,14.22 61.879,14.22 C62.547,14.22 63.162,14.487 63.385,15.158 C63.756,14.571 64.404,14.22 65.103,14.22 C66.196,14.22 66.927,14.678 66.927,15.82 L66.927,19.862 L66.026,19.862 L66.026,16.246 C66.026,15.563 65.845,15.019 64.965,15.019 C64.096,15.019 63.533,15.574 63.533,16.427 L63.533,19.862 L62.632,19.862 L62.632,16.246 C62.632,15.531 62.409,15.019 61.604,15.019 C60.533,15.019 60.14,16.011 60.14,16.427 L60.14,19.862 L59.239,19.862 L59.239,14.347 L59.238,14.347 Z" id="Path"></path>
                    <path d="M72.826,19.861 L71.977,19.861 L71.977,18.986 L71.956,18.986 C71.574,19.669 70.96,19.988 70.175,19.988 C68.733,19.988 68.287,19.156 68.287,17.972 L68.287,14.346 L69.188,14.346 L69.188,18.079 C69.188,18.751 69.612,19.188 70.301,19.188 C71.394,19.188 71.924,18.452 71.924,17.46 L71.924,14.346 L72.825,14.346 L72.825,19.861 L72.826,19.861 Z" id="Path"></path>
                    <path d="M74.186,14.347 L75.035,14.347 L75.035,15.222 L75.056,15.222 C75.438,14.539 76.053,14.22 76.838,14.22 C78.28,14.22 78.726,15.052 78.726,16.236 L78.726,19.862 L77.825,19.862 L77.825,16.129 C77.825,15.457 77.4,15.02 76.712,15.02 C75.619,15.02 75.089,15.756 75.089,16.748 L75.089,19.862 L74.188,19.862 L74.188,14.347 L74.186,14.347 Z" id="Path"></path>
                    <path d="M81.038,13.354 L80.137,13.354 L80.137,12.245 L81.038,12.245 L81.038,13.354 Z M80.137,14.347 L81.038,14.347 L81.038,19.861 L80.137,19.861 L80.137,14.347 Z" id="Shape" fill-rule="nonzero"></path>
                    <path d="M86.161,16.117 C86.022,15.424 85.546,15.018 84.804,15.018 C83.499,15.018 83.096,16.053 83.096,17.172 C83.096,18.186 83.552,19.188 84.698,19.188 C85.568,19.188 86.088,18.676 86.204,17.844 L87.127,17.844 C86.926,19.188 86.088,19.988 84.709,19.988 C83.033,19.988 82.143,18.815 82.143,17.172 C82.143,15.519 82.992,14.218 84.731,14.218 C85.971,14.218 86.968,14.804 87.095,16.116 L86.161,16.116 L86.161,16.117 Z" id="Path"></path>
                    <path d="M92.993,19.839 C92.834,19.935 92.632,19.988 92.346,19.988 C91.879,19.988 91.582,19.732 91.582,19.135 C91.084,19.721 90.416,19.988 89.652,19.988 C88.655,19.988 87.839,19.54 87.839,18.442 C87.839,17.194 88.762,16.927 89.694,16.746 C90.691,16.554 91.54,16.618 91.54,15.935 C91.54,15.146 90.893,15.018 90.32,15.018 C89.556,15.018 88.995,15.252 88.952,16.063 L88.051,16.063 C88.104,14.698 89.155,14.218 90.373,14.218 C91.359,14.218 92.431,14.442 92.431,15.732 L92.431,18.569 C92.431,18.996 92.431,19.188 92.717,19.188 C92.791,19.188 92.876,19.177 92.993,19.135 L92.993,19.839 Z M91.529,17.013 C91.179,17.269 90.501,17.28 89.896,17.386 C89.302,17.493 88.792,17.706 88.792,18.378 C88.792,18.975 89.302,19.189 89.853,19.189 C91.041,19.189 91.529,18.442 91.529,17.941 L91.529,17.013 Z" id="Shape" fill-rule="nonzero"></path>
                    <path d="M95.084,14.347 L96.177,14.347 L96.177,15.147 L95.084,15.147 L95.084,18.571 C95.084,18.987 95.201,19.062 95.763,19.062 L96.177,19.062 L96.177,19.862 L95.488,19.862 C94.554,19.862 94.183,19.67 94.183,18.657 L94.183,15.148 L93.25,15.148 L93.25,14.348 L94.183,14.348 L94.183,12.695 L95.084,12.695 L95.084,14.347 Z" id="Path"></path>
                    <path d="M98.129,13.354 L97.228,13.354 L97.228,12.245 L98.129,12.245 L98.129,13.354 Z M97.228,14.347 L98.129,14.347 L98.129,19.861 L97.228,19.861 L97.228,14.347 Z" id="Shape" fill-rule="nonzero"></path>
                    <path d="M101.896,14.219 C103.635,14.219 104.557,15.488 104.557,17.109 C104.557,18.72 103.635,19.989 101.896,19.989 C100.157,19.989 99.234,18.72 99.234,17.109 C99.233,15.488 100.156,14.219 101.896,14.219 Z M101.896,19.189 C102.839,19.189 103.603,18.442 103.603,17.109 C103.603,15.765 102.839,15.019 101.896,15.019 C100.952,15.019 100.188,15.766 100.188,17.109 C100.188,18.442 100.951,19.189 101.896,19.189 Z" id="Shape" fill-rule="nonzero"></path>
                    <path d="M105.619,14.347 L106.468,14.347 L106.468,15.222 L106.489,15.222 C106.871,14.539 107.486,14.22 108.271,14.22 C109.713,14.22 110.159,15.052 110.159,16.236 L110.159,19.862 L109.258,19.862 L109.258,16.129 C109.258,15.457 108.833,15.02 108.145,15.02 C107.052,15.02 106.522,15.756 106.522,16.748 L106.522,19.862 L105.621,19.862 L105.621,14.347 L105.619,14.347 Z" id="Path"></path>
                    <path d="M112.069,18.122 C112.1,18.933 112.8,19.189 113.543,19.189 C114.106,19.189 114.869,19.061 114.869,18.368 C114.869,17.664 113.977,17.547 113.076,17.344 C112.185,17.141 111.284,16.843 111.284,15.787 C111.284,14.678 112.377,14.219 113.331,14.219 C114.54,14.219 115.505,14.603 115.579,15.947 L114.678,15.947 C114.615,15.243 113.999,15.019 113.406,15.019 C112.865,15.019 112.239,15.168 112.239,15.723 C112.239,16.373 113.194,16.48 114.032,16.683 C114.933,16.886 115.824,17.184 115.824,18.251 C115.824,19.563 114.604,19.989 113.491,19.989 C112.261,19.989 111.221,19.488 111.169,18.122 L112.069,18.122 Z" id="Path"></path>
                </g>
                <g id="Group" transform="translate(31.000000, 0.000000)">
                    <rect id="Rectangle" x="0.809" y="0.408" width="9.117" height="18.675"></rect>
                    <rect id="Rectangle" x="30.156" y="0.408" width="9.117" height="18.675"></rect>
                    <path d="M18.777,4.287 L20.078,1.62 L21.373,4.19 C21.534,4.462 21.663,4.442 21.922,4.309 L23.035,3.756 L22.308,7.348 C22.158,8.049 22.557,8.257 22.989,7.779 L24.571,6.074 L24.991,7.041 C25.136,7.333 25.347,7.292 25.63,7.234 L27.264,6.887 L26.721,8.968 L26.704,9.014 C26.641,9.285 26.513,9.514 26.811,9.64 L27.399,9.932 L24.025,12.806 C23.676,13.163 23.796,13.275 23.929,13.672 L24.241,14.638 L21.094,14.065 C20.705,13.967 20.438,13.967 20.426,14.279 L20.556,17.912 L19.606,17.912 L19.731,14.297 C19.731,13.932 19.466,13.943 18.829,14.073 L15.923,14.637 L16.295,13.671 C16.428,13.303 16.461,13.052 16.168,12.805 L12.72,9.974 L13.354,9.586 C13.536,9.444 13.551,9.294 13.449,8.978 L12.808,6.868 L14.464,7.226 C14.931,7.331 15.057,7.226 15.174,6.965 L15.637,6.009 L17.275,7.875 C17.568,8.222 17.976,7.992 17.85,7.493 L17.059,3.607 L18.281,4.306 C18.474,4.427 18.681,4.459 18.793,4.232 L18.777,4.287 Z" id="Path"></path>
                </g>
            </g>
        </g>
    </g>
</svg>