<?xml version="1.0" encoding="utf-8"?>
<!-- Generator: Adobe Illustrator 19.2.0, SVG Export Plug-In . SVG Version: 6.00 Build 0)  -->
<svg version="1.1" id="LOGO" xmlns="http://www.w3.org/2000/svg" xmlns:xlink="http://www.w3.org/1999/xlink" x="0px" y="0px"
	 viewBox="0 0 269.2 160.9" style="enable-background:new 0 0 269.2 160.9;" xml:space="preserve">
<style type="text/css">
	.st0{fill:#004713;}
	.st1{fill:#8DC63F;}
	.st2{fill:#FFFFFF;}
	.st3{fill:#EF3E42;}
</style>
<g>
	<g>
		<g>
			<path class="st0" d="M269.2,21.9l-37.2,12.6c2.8-7.3,14.5-32.7-8.6-25.9l3.3-8.6L194,10.8l-3.9,8.6l-7.9,2.6l2.7-6L152.2,28
				l-2.1,4.7l-51.2,17l2.1-4.8L54.6,60.3L2.1,126.1l-0.6,5.2l58-19.1l-23.5,43.5l-0.6,5.2l22.4-7.2c0.2-0.1,27.1-8.9,30.1-9.9
				c1.8-0.6,3.3-1.2,4.3-1.6c0.7-0.3,1.5-0.6,2.3-1c1.5-0.7,4.4-2,7.3-4.4c0.6,0.2,1.3,0.3,2,0.4c2.9,0.4,5.4-0.4,6.4-0.7l83.1-27.1
				l75.4-82.4L269.2,21.9z"/>
			<path class="st1" d="M226.3,38.5c2.2-5.5,19.7-36.9-8-26.2l3.9-8.6l-26.6,8.8l-3.9,8.6l-13.4,4.4l2.6-5.8l-27.2,9.9l-2.1,4.7
				L95.1,53.1l2.1-4.8L55.8,62.1L8.1,121.8L67,102.4l-26.9,49.7l17.4-5.6c0.2-0.1,27-8.9,30-9.9c1.8-0.6,3.3-1.2,4.3-1.6
				c0.7-0.3,1.4-0.6,2.2-1c1.6-0.6,4.7-2.2,7.8-4.9c0.8,0.4,1.7,0.6,2.7,0.7c2.4,0.3,4.6-0.3,5.5-0.6l82.5-26.9l69.6-76L226.3,38.5z
				"/>
			<path class="st2" d="M221.3,42.7c0,0,0.1-1,1.1-3.2l6.4-14.6c2.1-4.7,2.5-7.6,1.3-9.7c-0.7-1.3-2.1-2.2-3.6-2.4
				c-1-0.1-2,0-3.2,0.4l-6.3,2.1c0,0,0,0-0.1,0l-5.1,1.7l3.9-8.6L199,13.9l-3.9,8.6l-1.6,0.5c0,0-4.1,1.4-5.5,1.8l-10,3.3l0,0
				l-6.2,2l2.5-5.5L157.1,31l-2.2,4.8l-14.4,4.8c0,0,0,0,0,0l-17.8,5.9l0,0l-34,11.3l2.1-4.8l-32,10.7l-38.9,48.7l53.9-17.8
				c0,0,1.6-0.5,0.7,1.5l-25.8,47.6l8.3-2.7c0.1,0,27-8.8,29.9-9.9c1.8-0.6,3.2-1.1,4.1-1.5c0.7-0.3,1.3-0.5,1.9-0.9
				c1.4-0.6,5.5-2.5,9-6.5c0.9,1.1,2.1,1.7,3.6,1.9c1.7,0.2,3.3-0.3,3.8-0.4l81.6-26.6l58.8-64.2L221.3,42.7z"/>
			<path class="st0" d="M60.8,66.7l8.4-2.8L58.3,89l17.6-27.4l8.5-2.9L71.2,89.2l-0.5,2.7l-9.8,3.1l1.7-2.8l8-17.9L55.9,96.8
				l-9.4,3.1l9.3-21.1l-16.9,21.6l-1.3,2.7l-7.7,2.5L60.8,66.7z M102.9,62.9c2.2-5,2.3-6.9-1.2-5.7l-12,4c-3.5,1.2-5.5,3.7-7.7,8.7
				l-6.2,14.3c-2.2,5-2.3,6.9,1.2,5.7l12-4c3.5-1.2,5.5-3.7,7.7-8.7L102.9,62.9z M89.9,66.7c0.6-1.4,1.1-2,2-2.3l3.2-1.1
				c0.9-0.3,0.9,0.2,0.3,1.5l-6.8,15.5c-0.6,1.4-1.1,2-2,2.3l-3.2,1.1c-0.9,0.3-0.9-0.2-0.2-1.6L89.9,66.7z M117.5,76.4
				c0.1-1.1,0.1-1.9,1.6-5.2L129.4,48l-8.6,2.8c-0.1,1.1-0.1,1.9-1.6,5.2l-7.3,16.6c-0.7,1.5-1.2,2.1-2.2,2.4l-2.8,0.9
				c-0.9,0.3-1-0.1-0.4-1.6l9.7-22l-8.6,2.8c-0.1,1.1-0.1,1.9-1.6,5.2l-6.4,14.5c-2.4,5.3-2.4,8.2,1.2,7l6.3-2.1
				c1.1-0.4,2.2-1.8,3.1-3.1l0.1,0l-0.9,2.4L117.5,76.4z M131.3,47.3c-0.1,1.1-0.1,1.9-1.6,5.2l-7.8,17.7c-1.5,3.3-2.3,4.4-3.3,5.8
				l9.4-3.1c0.1-1.1,0.1-1.9,1.6-5.2l7.3-16.6c0.7-1.5,1.2-2.1,2.2-2.4l2.8-0.9c0.9-0.3,1,0.1,0.4,1.5L135,65.9
				c-1.5,3.3-2.3,4.4-3.3,5.8l9.4-3.1c0.1-1.1,0.1-1.9,1.6-5.2l6.4-14.5c2.4-5.3,2.4-8.2-1.2-7l-6.2,2.1c-1.1,0.4-2.2,1.8-3.1,3.1
				l-0.1,0l0.9-2.4L131.3,47.3z M157.5,38.7l-3.3,1.1l-2.1,4.7l3.3-1.1l-7.3,16.6c-2.7,5.9-1.2,6.7,1.2,5.9l9.7-3.2l3-5.7
				c-0.5,0.4-1.7,1.3-3.2,1.8l-2.7,0.9c-1.4,0.4-1.4,0.1-0.7-1.4l7.7-17.4l6.2-2l2.1-4.7l-6.2,2l2.3-5.2l-7.9,2.9L157.5,38.7z
				 M175,32.9l-3.1,5.9c1.2-1,2.1-1.6,3.5-2l7.7-2.6c1.1-0.4,1.1,0,0.6,1.1c-0.5,1.1-0.9,1.6-2,2l-7,2.3c-3.5,1.2-5.5,3.7-7.7,8.7
				l-2.8,6.6c-2.2,5-2.3,6.9,1.2,5.7l5.5-1.8c2.1-0.7,3-1.4,4.3-3.7l0.1,0l-0.8,2.5l7.7-2.6c0-0.8,0.2-1.8,1.3-4.2l6.7-15.3
				c2.9-6.5,2.6-8.5-1.1-7.3L175,32.9z M180.9,41.4l-3.5,8.3c-1.4,3-1.7,3.4-3.2,3.9l-1.8,0.6c-1.2,0.3-1.5,0.2-0.7-1.5l3.2-7.6
				c0.8-1.7,1.3-2.1,2.5-2.6L180.9,41.4z M187.3,48.6c-1.5,3.3-2.3,4.4-3.3,5.8l9.4-3.1c0.1-1.1,0.1-1.9,1.6-5.2l10.3-23.2l-8.6,2.8
				c-0.1,1.1-0.1,1.9-1.6,5.2L187.3,48.6z M201.5,16.8l-2.8,6.3l7.6-2.5l2.8-6.3L201.5,16.8z M207.7,22c-0.1,1.1-0.1,1.9-1.6,5.2
				l-7.8,17.7c-1.5,3.3-2.3,4.4-3.3,5.8l9.4-3.1c0.1-1.1,0.1-1.9,1.6-5.2l7.3-16.6c0.7-1.5,1.2-2.1,2.2-2.4l2.8-0.9
				c0.9-0.3,1,0.1,0.4,1.6l-7.3,16.6c-1.5,3.3-2.3,4.4-3.3,5.8l9.4-3.1c0.1-1.1,0.1-1.9,1.6-5.2l6.4-14.5c2.4-5.3,2.4-8.2-1.2-7
				l-6.3,2.1c-1.1,0.4-2.2,1.8-3.1,3.1l-0.1,0l0.9-2.4L207.7,22z"/>
			<path class="st3" d="M104.1,84.5c13.5-5.9,9.7,3.8,9.7,3.8c-0.4,2.9-11.2,26.4-11.2,26.4c-3.3,8.4-11.3,11.1-11.3,11.1
				c-0.3,0.1-35.4,12-35.4,12l21.6-40c2.2-4.3,1.2-4.9,1.2-4.9L104.1,84.5z M90.4,97.4l-12.9,25.1l8.1-3c0,0,2.3-0.7,4-4.6l8.4-17.4
				c0,0,1.6-3.3-0.8-2.4L90.4,97.4z M160.5,69.5L143,109l14.9-4.8l28.7-37.4l-15.5,33.1l17.9-5.5l49-53.5l-14.3,4.8l-1.9,3.5
				l-25.9,29.3l12.8-27.9l-20.3,6.6l-23.5,31.5l11-24.6l2.6-3.5l-17,5.5L160.5,69.5z M152.7,68.9l-21.2,6.9
				c-9.9,2.8-13.1,10.6-13.1,10.6C117.2,88.5,106,113,106,113c-5.1,10.3,2.2,7.6,2.2,7.6l29.9-9.8l5.5-10.2c-3.5,2.9-20,7.9-20,7.9
				c-3.3,0.9-2.7-0.3-2.7-0.3c-0.2-1.7,2.6-7,2.6-7l23.6-7.6l7.4-15.9C159.7,66.7,152.7,68.9,152.7,68.9z M140.4,82.4l-3.1,6.5
				l-10,3.5L131,85c2-3.5,8-4.5,8-4.5C141.8,79.8,140.4,82.4,140.4,82.4z"/>
		</g>
		<g>
			<path class="st0" d="M208.2,98.3v-0.6h0.6c0.3,0,0.3,0.2,0.3,0.3c0,0.2-0.1,0.3-0.4,0.3H208.2z M207.7,99.5h0.5v-0.9h0.5
				c0.4,0,0.4,0.1,0.4,0.4c0,0.2,0,0.3,0.1,0.4h0.5v-0.1c-0.1,0-0.1-0.1-0.1-0.4c0-0.4-0.1-0.5-0.3-0.6c0.2-0.1,0.4-0.3,0.4-0.5
				c0-0.2-0.1-0.6-0.7-0.6h-1.2V99.5z"/>
			<path class="st0" d="M206.9,98.5c0-0.9,0.8-1.6,1.7-1.6c0.9,0,1.7,0.7,1.7,1.6c0,1-0.8,1.7-1.7,1.7
				C207.6,100.1,206.9,99.4,206.9,98.5z M208.6,100.5c1.1,0,2.1-0.8,2.1-2c0-1.1-1-2-2.1-2c-1.2,0-2.1,0.8-2.1,2
				C206.5,99.6,207.5,100.5,208.6,100.5z"/>
		</g>
	</g>
</g>
</svg>
