<?xml version="1.0" encoding="utf-8"?>
<!-- Generator: Adobe Illustrator 19.2.0, SVG Export Plug-In . SVG Version: 6.00 Build 0)  -->
<svg version="1.1" id="Layer_2" xmlns="http://www.w3.org/2000/svg" xmlns:xlink="http://www.w3.org/1999/xlink" x="0px" y="0px"
	 viewBox="0 0 543.4 181" style="enable-background:new 0 0 543.4 181;" xml:space="preserve">
<style type="text/css">
	.st0{fill:#00529C;}
	.st1{fill:#0099D8;}
	.st2{fill:#F47937;}
	.st3{fill:#009D57;}
	.st4{fill:#ED1C24;}
</style>
<g>
	<g>
		<path class="st0" d="M142.2,91.4h12.3c4.8,0,6.6,1.7,6.6,5.7c0,3.9-1.8,5.6-6.6,5.6h-12.3V91.4z M123.1,132.5h19.1v-16.7h20.5
			c13.6,0,18.4-8,18.4-18.3c0-12-5-18.8-18.6-18.8h-39.4L123.1,132.5L123.1,132.5z"/>
		<path class="st0" d="M187.4,78.8h51.4v13.1h-32.3v7.2h30v13.1h-30v7.2h32.3v13.1h-51.4V78.8z"/>
		<path class="st0" d="M266,91.4h12.3c4.8,0,6.6,1.7,6.6,5.7c0,3.9-1.8,5.6-6.6,5.6H266V91.4z M246.9,132.5H266v-16.7h20.5
			c13.6,0,18.4-8,18.4-18.3c0-12-5-18.8-18.6-18.8h-39.4V132.5z"/>
		<path class="st0" d="M323.4,109.7c-9.4-1.6-13.2-7.6-13.2-15.1c0-13.9,12.3-17.7,28-17.7c21.6,0,30.4,6.3,31.1,17.6h-22.2
			c0-2.2-1.2-3.5-2.9-4.3c-1.7-0.8-3.9-1.1-6-1.1c-5.7,0-7.7,1.6-7.7,3.8c0,1.5,0.6,2.5,2.5,2.8l22.8,3.8
			c9.6,1.6,15.6,6.6,15.6,15.7c0,13.1-9.6,19.3-31.1,19.3c-14.7,0-30.8-2.3-30.8-18.1h23c0.1,1.8,0.7,3,2,3.8
			c1.4,0.8,3.5,1.1,6.5,1.1c6,0,7.6-1.8,7.6-4.4c0-1.6-0.9-3.2-3.5-3.6L323.4,109.7z"/>
		<path class="st0" d="M377.7,78.8h19.1v53.8h-19.1V78.8z"/>
		<path class="st0" d="M467.7,111.6c-1.2,7.1-3.4,12.8-8.1,16.7c-4.7,3.9-12,6.1-23.7,6.1c-11.6,0-33.1-0.9-33.1-28.8
			s21.5-28.8,33.1-28.8c11.5,0,29.3,1.7,31.8,23h-21.6c-0.5-3.8-2.8-9.4-10.2-9.4c-7.8,0-12.7,4.3-12.7,15.2s4.8,15.2,11.8,15.2
			c6,0,9.6-2.8,11.2-9.3h21.5V111.6z"/>
		<path class="st0" d="M492.7,105.7c0-10.9,5-15.2,12.7-15.2c7.8,0,12.7,4.3,12.7,15.2s-4.9,15.2-12.7,15.2
			C497.6,120.9,492.7,116.6,492.7,105.7z M472.3,105.7c0,27.9,21.5,28.8,33.1,28.8s33.1-0.9,33.1-28.8S517,76.9,505.4,76.9
			C493.8,76.9,472.3,77.8,472.3,105.7z"/>
	</g>
	<path class="st0" d="M94.2,79.3c1.2-25.8-21-54.9-51.4-58.4v-0.4c29.9,0,52.9,27.7,52.9,49.5c0,4.5-0.4,7.4-1,9.4L94.2,79.3z
		 M92.4,82.6c-2,2.4-4.5,4.9-7.4,7.2c-5.4-31-28.2-58.1-44.3-66.1L40.3,24c16.2,13.3,35.6,39.1,43.1,67c-3.6,2.6-7.8,5.1-12.4,7.1
		C55.7,80.6,41.5,47,36.9,25.7l-0.5,0.1c0.1,20.7,14.8,55.9,32.8,73c-4,1.6-8.3,2.8-12.8,3.5C39.2,95.6,27,73.7,27,51.4
		c0-14.6,4.5-23.6,5.3-25.5l-0.4-0.1c-1,1.6-7.6,10.6-7.6,26.3c0,25.3,12.5,44.6,29,50.7c-5.7,0.6-11.6,0.4-17.7-0.8l-0.1,0.4
		c1.8,0.7,7.8,3.2,16.9,3.2c20.7,0,34.7-12.9,40.4-22.6L92.4,82.6z"/>
	<path class="st1" d="M50.4,11.4c-15.7,0-34.1,11.3-34.1,21.7c0,4,3.7,7.4,11.3,7.4c17.6,0,34-12.1,34-21.5
		C61.5,14,56.7,11.4,50.4,11.4z M56.6,18.7c0,7.9-15.2,17.6-28,17.6c-5.6,0-8.7-2.2-8.7-5.9c0-8,15.4-17.6,27.4-17.6
		C55.1,12.9,56.6,16.8,56.6,18.7z"/>
	<path class="st2" d="M10,37.9c-0.4,0.8-2.2,4.2-2.2,7.8c0,6.6,6.6,12.7,18.9,12.7C50.2,58.3,77.4,41,77.4,25
		c0-7.2-6.8-11.1-11.6-11.9l-0.1,0.3c1.5,0.5,6.9,3,6.9,9.4c0,12.8-24,30.2-47.9,30.2c-9.1,0-14.9-4.5-14.9-11.1
		c0-2.1,0.4-3.4,0.6-3.8L10,37.9z"/>
	<path class="st3" d="M87.1,26.2c0.6,0.5,4.5,3.7,4.5,9.8c0,20.8-32.6,41.3-61.5,41.3c-17.2,0-25-8.5-24.7-16h0.3
		C6.4,65.1,12,72.1,27,72.1c28.9,0,61.1-21.2,61.1-39.7c0-3.2-0.9-5.2-1.4-6L87.1,26.2z"/>
	<path class="st4" d="M98,45.6c0.1,0.4,0.8,2.4,0.8,5.6c0,23.2-33,43-61.7,43C22.3,94.2,14.6,87,13,84.1l0.3-0.2
		c4.1,3.6,12.1,6.3,21.5,6.3c25.4,0,63.2-19.3,62.9-44.4L98,45.6z"/>
</g>
</svg>
