<?xml version="1.0" encoding="utf-8"?>
<!-- Generator: Adobe Illustrator 16.0.0, SVG Export Plug-In . SVG Version: 6.00 Build 0)  -->
<!DOCTYPE svg PUBLIC "-//W3C//DTD SVG 1.1//EN" "http://www.w3.org/Graphics/SVG/1.1/DTD/svg11.dtd">
<svg version="1.1" id="Layer_1" xmlns="http://www.w3.org/2000/svg" xmlns:xlink="http://www.w3.org/1999/xlink" x="0px" y="0px"
	 width="640px" height="473px" viewBox="0 -67.5 640 473" enable-background="new 0 -67.5 640 473" xml:space="preserve">
<path d="M639.587,304.943H0V26h639.587V304.943z M8.975,295.98h621.641V34.974H8.975V295.98z"/>
<path d="M91.162,209.854H89.23c-12.606,0-29.022-7.152-34.619-17.584c-1.502-2.363,2.989-3.988,4.299-1.642
	c4.906,9,19.423,15.472,30.32,15.472h1.932c15.999,0,29.65-6.472,29.65-20.32c0-15.646-15.809-19.441-31.383-21.945
	c-12.162-1.982-31.396-6.5-31.396-20.143v-1.64c0-14.729,16.253-21.037,30.96-21.037h1.294c13.027,0,21.992,4.844,28.586,9.705
	c2.367,1.822-0.622,4.693-2.98,2.9c-6.408-4.705-14.511-8.852-25.606-8.852h-1.294c-12.153,0-26.67,4.867-26.67,17.283v1.639
	c0,9.517,14.707,14.365,27.742,16.722c17.729,3.069,35.235,6.646,35.235,25.366C125.3,202.843,107.983,209.854,91.162,209.854z"/>
<path d="M91.162,211.682H89.23c-12.639,0-30.085-7.105-36.174-18.609c-0.661-0.975-0.708-2.234-0.125-3.297
	c0.688-1.242,2.222-2.074,3.887-2.074c1.564,0,2.962,0.779,3.67,2.047c4.657,8.568,18.878,14.543,28.741,14.543h1.932
	c13.444,0,27.867-4.873,27.867-18.512c0-14.166-14.781-17.738-29.884-20.187c-8.124-1.309-32.894-5.36-32.894-21.901v-1.64
	c0-15.688,16.988-22.846,32.743-22.846h1.294c14.307,0,23.772,5.764,29.647,10.062c1.404,1.049,1.902,2.583,1.446,4.041
	c-0.824,2.432-4.299,3.447-6.577,1.73c-4.948-3.6-12.882-8.45-24.516-8.45h-1.294c-9.238,0-24.883,3.259-24.883,15.462v1.639
	c0,8.912,16.469,13.172,26.296,14.966c16.339,2.809,36.671,6.329,36.671,27.122C127.078,204.891,107.717,211.682,91.162,211.682z
	 M56.819,191.268c-0.368,0-0.711,0.2-0.747,0.268c5.451,9.83,21.494,16.537,33.158,16.537h1.932
	c14.926,0,32.346-5.824,32.346-22.293c0-11.066-6.586-16.43-16.727-19.752c8.509,3.145,15.814,8.756,15.814,19.752
	c0,13.432-12.351,22.127-31.434,22.127H89.23c-11.098,0-26.536-6.619-31.917-16.4C57.23,191.345,57.088,191.268,56.819,191.268z
	 M88.993,122.821c-14.511,0-29.173,5.955-29.173,19.23v1.639c0,8.228,7.99,13.9,24.347,17.334
	c-15.492-3.619-23.627-9.557-23.627-17.334v-1.639c0-13.178,14.274-19.059,28.454-19.059h1.294c12.671,0,21.298,5.229,26.661,9.184
	c0.539,0.377,0.98,0.072,1.025,0.006c-5.611-4.047-14.458-9.361-27.686-9.361H88.993z"/>
<path d="M181.783,209.854h-2.358c-17.699,0-32.023-12.019-32.023-26.943v-34.92c0-14.936,14.325-26.975,32.023-26.975h2.358
	c17.5,0,32.017,12.039,32.017,26.975v34.92C213.8,197.835,199.476,209.854,181.783,209.854z M209.312,147.989
	c0-12.781-12.393-23.221-27.529-23.221h-2.358c-15.145,0-27.532,10.439-27.532,23.221v34.92c0,12.76,12.387,23.188,27.532,23.188
	h2.358c15.136,0,27.529-10.43,27.529-23.188V147.989L209.312,147.989z"/>
<path d="M181.783,211.682h-2.358c-18.647,0-33.807-12.935-33.807-28.771v-34.92c0-15.842,15.16-28.783,33.807-28.783h2.358
	c18.644,0,33.804,12.941,33.804,28.783v34.92C215.587,198.747,200.427,211.682,181.783,211.682z M179.425,122.821
	c-16.656,0-30.243,11.268-30.243,25.168v34.92c0,13.858,13.586,25.161,30.243,25.161h2.358c16.65,0,30.228-11.303,30.228-25.161
	v-34.92c0-13.9-13.578-25.168-30.228-25.168H179.425z M181.783,207.905h-2.358c-16.194,0-29.324-11.22-29.324-24.996v-34.92
	c0-13.777,13.13-24.996,29.324-24.996h2.358c16.146,0,29.318,11.219,29.318,24.996v34.92
	C211.102,196.688,197.929,207.905,181.783,207.905z M179.425,126.59c-14.206,0-25.757,9.614-25.757,21.399v34.92
	c0,11.789,11.551,21.381,25.757,21.381h2.358c14.197,0,25.745-9.592,25.745-21.381v-34.92c0-11.785-11.548-21.399-25.745-21.399
	H179.425z"/>
<path d="M298.404,121.015c-1.068,0-2.127,0.729-2.127,1.973v11.137v12.26v37.75v2.68c-1.51,10.791-13.43,19.285-27.587,19.285
	h-2.353c-15.142,0-27.541-10.43-27.541-23.399v-59.713c0-1.244-1.061-1.973-2.364-1.973c-1.055,0-2.122,0.729-2.122,1.973v59.711
	c0,15.137,14.325,27.153,32.026,27.153h2.353c11.595,0,23.373-5.25,27.587-12.822v23.63c0,12.766-12.395,23.186-27.54,23.186h-2.355
	c-13.444,0-26.27-6.081-29.665-15.438c-0.427-1.07-1.292-1.427-2.16-1.427c-1.066,0-2.314,0.715-2.314,1.799
	c0,0.345,0,0.5,0.196,0.695c4.047,11.51,19.432,18.164,33.943,18.164h2.355c17.698,0,32.015-12.055,32.015-26.979v-97.672
	C300.751,121.743,299.462,121.015,298.404,121.015z"/>
<path d="M268.737,249.425h-2.355c-14.2,0-30.856-6.521-35.537-19.045c-0.433-0.596-0.433-1.229-0.433-1.6
	c0-2.162,2.175-3.634,4.145-3.634c1.777,0,3.185,0.986,3.816,2.607c3.048,8.299,14.801,14.312,28.009,14.312h2.355
	c14.212,0,25.754-9.594,25.754-21.408V202.23c-5.81,5.662-15.723,9.449-25.801,9.449h-2.353c-18.656,0-33.807-13.021-33.807-28.982
	v-59.71c0-2.104,1.709-3.781,3.902-3.781c2.423,0,4.147,1.598,4.147,3.781v59.711c0,11.903,11.548,21.592,25.757,21.592h2.353
	c13.085,0,24.412-7.779,25.822-17.701l-0.021-2.455v-61.147c0-2.104,1.71-3.781,3.913-3.781c2.006,0,4.14,1.441,4.14,3.781v97.672
	C302.543,236.542,287.39,249.425,268.737,249.425z M234.133,228.861v0.007c3.929,11.174,19.189,16.979,32.249,16.979h2.355
	c16.655,0,30.233-11.303,30.233-25.188v-97.672c-0.035-0.047-0.29-0.166-0.566-0.166c-0.014,0-0.343,0.006-0.343,0.166v63.826
	c-1.653,12.144-14.307,21.093-29.372,21.093h-2.353c-16.176,0-29.327-11.312-29.327-25.207v-59.711
	c-0.024-0.077-0.213-0.166-0.578-0.166c0,0-0.338,0.006-0.338,0.166v59.711c0,14.012,13.581,25.372,30.243,25.372h2.353
	c11.05,0,22.244-5.122,26.009-11.928l3.362-6.082v30.599c0,13.803-13.166,25.012-29.324,25.012h-2.355
	c-14.881,0-27.775-6.844-31.36-16.662C234.9,228.753,234.485,228.695,234.133,228.861z"/>
<path d="M354.317,209.854c-13.865,0-24.767-9.343-24.767-21.013V85.405c0-1.273,1.066-1.993,2.125-1.993
	c1.303,0,2.367,0.56,2.367,1.993v103.436c0,9.511,8.965,17.259,20.273,17.259c1.491,0,2.334,0.895,2.334,1.973
	C356.651,208.993,355.81,209.854,354.317,209.854z"/>
<path d="M354.317,211.682c-14.914,0-26.552-10.046-26.552-22.841V85.405c0-2.118,1.703-3.783,3.91-3.783
	c2.482,0,4.142,1.521,4.142,3.783v103.436c0,8.519,8.313,15.449,18.5,15.449c2.397,0,4.116,1.599,4.116,3.781
	C358.435,209.825,356.995,211.682,354.317,211.682z M331.677,85.201c0,0-0.332,0.012-0.332,0.204v103.436
	c0,10.787,10.078,19.229,22.974,19.229c0.354,0,0.551-0.118,0.586-0.131c-0.035,0-0.379-0.034-0.586-0.034
	c-12.189,0-22.066-8.552-22.066-19.064V85.405C332.28,85.313,332.12,85.201,331.677,85.201z"/>
<path d="M434.358,167.057H374.77v15.854c0,12.76,12.388,23.189,27.529,23.189h2.346c11.935,0,22.244-6.673,26.025-15.826
	c0.23-0.916,1.096-1.277,1.969-1.277c1.254,0,2.511,0.713,2.511,1.793c0,0.191-0.148,0.557-0.148,0.746
	c-4.33,10.604-16.293,18.318-30.355,18.318H402.3c-17.729,0-32.002-12.019-32.002-26.943v-34.92
	c0-14.936,14.707-26.975,32.209-26.975h1.734c17.688,0,32.401,11.168,32.401,26.975v17.074
	C436.644,166.148,435.632,167.057,434.358,167.057z M432.151,147.989c0-12.781-12.334-23.221-27.507-23.221h-2.139
	c-15.139,0-27.736,10.439-27.736,23.221v15.282h57.382V147.989z"/>
<path d="M404.646,211.682H402.3c-18.635,0-33.803-12.935-33.803-28.771v-34.92c0-15.842,15.281-28.783,34.01-28.783h1.734
	c19.531,0,34.237,12.375,34.237,28.783v17.074c0,2.11-1.858,3.776-4.12,3.776h-57.785v14.068c0,11.789,11.539,21.381,25.727,21.381
	h2.347c10.938,0,20.754-5.918,24.438-14.703c0.229-1.354,1.656-2.369,3.555-2.369c2.47,0,4.345,1.578,4.345,3.57
	c0,0.396-0.14,0.752-0.24,1l-0.123,0.416C431.979,203.861,419.11,211.682,404.646,211.682z M402.507,122.821
	c-16.791,0-30.422,11.268-30.422,25.168v34.92c0,13.858,13.57,25.161,30.215,25.161h2.347c12.93,0,24.428-6.825,28.59-17.04
	c0.012-0.06,0.028-0.119,0.055-0.166c-0.16-0.013-0.422-0.076-0.65-0.076c-4.518,10.31-15.627,17.117-27.993,17.117H402.3
	c-16.182,0-29.324-11.22-29.324-24.996v-17.64h61.384c0.293,0,0.524-0.184,0.565-0.23l-0.018-17.05
	c0-14.34-13.217-25.168-30.666-25.168H402.507z M433.997,165.059h-61.021V147.99c0-13.777,13.25-24.996,29.531-24.996h2.14
	c16.227,0,29.352,11.219,29.352,24.996L433.997,165.059L433.997,165.059z M376.573,161.493h53.848v-13.504
	c0-11.785-11.596-21.399-25.774-21.399h-2.14c-14.285,0-25.934,9.614-25.934,21.399V161.493z"/>
<path d="M522.661,209.854c-1.008,0-2.125-0.711-2.125-1.947v-59.719c0-12.979-12.576-23.418-27.764-23.418h-2.121
	c-15.195,0-27.783,9.723-27.783,21.615v61.521c0,1.236-1.008,1.947-2.355,1.947c-1.01,0-2.129-0.711-2.129-1.947v-84.917
	c0-1.244,1.119-1.793,2.129-1.793c1.349,0,2.355,0.549,2.355,1.793v11.137c4.108-7.718,16.061-13.109,27.783-13.109h2.121
	c17.729,0,32.252,12.039,32.252,27.172v59.719C525.024,209.143,523.774,209.854,522.661,209.854z"/>
<path d="M522.661,211.682c-2.205,0-3.937-1.666-3.937-3.775v-59.719c0-11.902-11.618-21.598-25.952-21.598h-2.121
	c-14.062,0-25.945,9.048-25.945,19.794v61.521c0,2.18-1.773,3.774-4.193,3.774c-2.2,0-3.854-1.666-3.854-3.774v-84.918
	c0-2.064,1.588-3.582,3.854-3.582c2.507,0,4.193,1.449,4.193,3.582v5.834c5.721-5.77,15.748-9.615,25.945-9.615h2.121
	c18.782,0,34.092,12.995,34.092,28.981v59.718C526.864,210.214,524.698,211.682,522.661,211.682z M490.651,122.993h2.121
	c16.271,0,29.604,11.309,29.604,25.194v59.718c0,0.165,0.285,0.165,0.285,0.165c0.301,0,0.551-0.131,0.562-0.206l-0.012-59.677
	c0-14.012-13.6-25.367-30.439-25.367h-2.12c-11.283,0-22.546,5.232-26.173,12.156l-3.348,6.458v-18.42
	c-0.035,0.025-0.254-0.033-0.619-0.033c-0.156,0-0.328,0.059-0.362,0.092l0.081,84.832c0,0.16,0.275,0.166,0.275,0.166
	c0.406,0,0.607-0.119,0.631-0.131l-0.006-61.558C461.132,133.483,474.37,122.993,490.651,122.993z"/>
<path d="M558.265,188.841v-63.717H546.73c-3.242,0-3.242-3.76,0-3.76h11.534V85.213c0-2.523,4.486-2.523,4.486,0v36.151h18.967
	c2.996,0,2.996,3.76,0,3.76h-18.967v63.717c0,9.511,8.764,17.259,20.234,17.259c2.979,0,2.979,3.754,0,3.754
	C568.901,209.854,558.265,200.511,558.265,188.841z"/>
<path d="M582.985,211.682c-14.888,0-26.517-10.046-26.517-22.841v-61.877h-9.74c-2.709,0-4.166-1.906-4.166-3.71
	c0-1.786,1.457-3.688,4.166-3.688h9.74V85.213c0-2.095,1.754-3.694,4.053-3.694c2.234,0,3.994,1.6,3.994,3.694v34.353h17.201
	c2.685,0,4.088,1.902,4.088,3.688c0,1.804-1.403,3.71-4.088,3.71h-17.201v61.877c0,8.668,8.109,15.449,18.47,15.449
	c2.659,0,4.075,1.896,4.075,3.674C587.062,209.786,585.646,211.682,582.985,211.682z M546.165,123.28
	c0.09,0,0.203,0.064,0.563,0.064h13.3v65.495c0,10.787,10.146,19.23,22.957,19.23c0.344,0,0.485-0.09,0.516-0.113
	c-0.029,0-0.172-0.053-0.516-0.053c-12.347,0-22.041-8.398-22.041-19.064v-65.494h20.772c0.355,0,0.445-0.083,0.445-0.083
	s-0.09-0.083-0.445-0.083h-20.772V85.213c-0.019-0.026-0.871-0.032-0.943,0.027l0.027,37.939h-13.3c-0.397,0-0.51,0.06-0.582,0.101
	H546.165z"/>
</svg>
