<?xml version="1.0" encoding="utf-8"?>
<!-- Generator: Adobe Illustrator 19.2.0, SVG Export Plug-In . SVG Version: 6.00 Build 0)  -->
<svg version="1.1" id="Layer_1" xmlns="http://www.w3.org/2000/svg" xmlns:xlink="http://www.w3.org/1999/xlink" x="0px" y="0px"
	 viewBox="0 0 640 278.9" style="enable-background:new 0 0 640 278.9;" xml:space="preserve">
<g>
	<path d="M639.6,278.9H0V0h639.6V278.9z M9,270h621.6V9H9V270z"/>
	<path d="M91.2,183.9h-1.9c-12.6,0-29-7.2-34.6-17.6c-1.5-2.4,3-4,4.3-1.6c4.9,9,19.4,15.5,30.3,15.5h1.9c16,0,29.7-6.5,29.7-20.3
		c0-15.6-15.8-19.4-31.4-21.9c-12.2-2-31.4-6.5-31.4-20.1v-1.6c0-14.7,16.3-21,31-21h1.3c13,0,22,4.8,28.6,9.7
		c2.4,1.8-0.6,4.7-3,2.9c-6.4-4.7-14.5-8.9-25.6-8.9H89c-12.2,0-26.7,4.9-26.7,17.3v1.6c0,9.5,14.7,14.4,27.7,16.7
		c17.7,3.1,35.2,6.6,35.2,25.4C125.3,176.8,108,183.9,91.2,183.9z"/>
	<path d="M91.2,185.7h-1.9c-12.6,0-30.1-7.1-36.2-18.6c-0.7-1-0.7-2.2-0.1-3.3c0.7-1.2,2.2-2.1,3.9-2.1c1.6,0,3,0.8,3.7,2
		c4.7,8.6,18.9,14.5,28.7,14.5h1.9c13.4,0,27.9-4.9,27.9-18.5c0-14.2-14.8-17.7-29.9-20.2c-8.1-1.3-32.9-5.4-32.9-21.9v-1.6
		c0-15.7,17-22.8,32.7-22.8h1.3c14.3,0,23.8,5.8,29.6,10.1c1.4,1,1.9,2.6,1.4,4c-0.8,2.4-4.3,3.4-6.6,1.7
		c-4.9-3.6-12.9-8.4-24.5-8.4H89c-9.2,0-24.9,3.3-24.9,15.5v1.6c0,8.9,16.5,13.2,26.3,15c16.3,2.8,36.7,6.3,36.7,27.1
		C127.1,178.9,107.7,185.7,91.2,185.7z M56.8,165.3c-0.4,0-0.7,0.2-0.7,0.3c5.5,9.8,21.5,16.5,33.2,16.5h1.9
		c14.9,0,32.3-5.8,32.3-22.3c0-11.1-6.6-16.4-16.7-19.8c8.5,3.1,15.8,8.8,15.8,19.8c0,13.4-12.4,22.1-31.4,22.1h-1.9
		c-11.1,0-26.5-6.6-31.9-16.4C57.2,165.3,57.1,165.3,56.8,165.3z M89,96.8c-14.5,0-29.2,6-29.2,19.2v1.6c0,8.2,8,13.9,24.3,17.3
		c-15.5-3.6-23.6-9.6-23.6-17.3v-1.6C60.5,102.9,74.8,97,89,97h1.3c12.7,0,21.3,5.2,26.7,9.2c0.5,0.4,1,0.1,1,0
		c-5.6-4-14.5-9.4-27.7-9.4C90.3,96.8,89,96.8,89,96.8z"/>
	<path d="M181.8,183.9h-2.4c-17.7,0-32-12-32-26.9V122c0-14.9,14.3-27,32-27h2.4c17.5,0,32,12,32,27v34.9
		C213.8,171.8,199.5,183.9,181.8,183.9z M209.3,122c0-12.8-12.4-23.2-27.5-23.2h-2.4c-15.1,0-27.5,10.4-27.5,23.2v34.9
		c0,12.8,12.4,23.2,27.5,23.2h2.4c15.1,0,27.5-10.4,27.5-23.2L209.3,122L209.3,122z"/>
	<path d="M181.8,185.7h-2.4c-18.6,0-33.8-12.9-33.8-28.8V122c0-15.8,15.2-28.8,33.8-28.8h2.4c18.6,0,33.8,12.9,33.8,28.8v34.9
		C215.6,172.7,200.4,185.7,181.8,185.7z M179.4,96.8c-16.7,0-30.2,11.3-30.2,25.2v34.9c0,13.9,13.6,25.2,30.2,25.2h2.4
		c16.6,0,30.2-11.3,30.2-25.2V122c0-13.9-13.6-25.2-30.2-25.2H179.4z M181.8,181.9h-2.4c-16.2,0-29.3-11.2-29.3-25V122
		c0-13.8,13.1-25,29.3-25h2.4c16.1,0,29.3,11.2,29.3,25v34.9C211.1,170.7,197.9,181.9,181.8,181.9z M179.4,100.6
		c-14.2,0-25.8,9.6-25.8,21.4v34.9c0,11.8,11.6,21.4,25.8,21.4h2.4c14.2,0,25.7-9.6,25.7-21.4V122c0-11.8-11.5-21.4-25.7-21.4H179.4
		z"/>
	<path d="M298.4,95c-1.1,0-2.1,0.7-2.1,2v11.1v12.3v37.8v2.7c-1.5,10.8-13.4,19.3-27.6,19.3h-2.4c-15.1,0-27.5-10.4-27.5-23.4V97
		c0-1.2-1.1-2-2.4-2c-1.1,0-2.1,0.7-2.1,2v59.7c0,15.1,14.3,27.2,32,27.2h2.4c11.6,0,23.4-5.3,27.6-12.8v23.6
		c0,12.8-12.4,23.2-27.5,23.2h-2.4c-13.4,0-26.3-6.1-29.7-15.4c-0.4-1.1-1.3-1.4-2.2-1.4c-1.1,0-2.3,0.7-2.3,1.8
		c0,0.3,0,0.5,0.2,0.7c4,11.5,19.4,18.2,33.9,18.2h2.4c17.7,0,32-12.1,32-27V97C300.8,95.7,299.5,95,298.4,95z"/>
	<path d="M268.7,223.4h-2.4c-14.2,0-30.9-6.5-35.5-19c-0.4-0.6-0.4-1.2-0.4-1.6c0-2.2,2.2-3.6,4.1-3.6c1.8,0,3.2,1,3.8,2.6
		c3,8.3,14.8,14.3,28,14.3h2.4c14.2,0,25.8-9.6,25.8-21.4v-18.4c-5.8,5.7-15.7,9.4-25.8,9.4h-2.4c-18.7,0-33.8-13-33.8-29V97
		c0-2.1,1.7-3.8,3.9-3.8c2.4,0,4.1,1.6,4.1,3.8v59.7c0,11.9,11.5,21.6,25.8,21.6h2.4c13.1,0,24.4-7.8,25.8-17.7l0-2.5V97
		c0-2.1,1.7-3.8,3.9-3.8c2,0,4.1,1.4,4.1,3.8v97.7C302.5,210.5,287.4,223.4,268.7,223.4z M234.1,202.9L234.1,202.9
		c3.9,11.2,19.2,17,32.2,17h2.4c16.7,0,30.2-11.3,30.2-25.2V97c0,0-0.3-0.2-0.6-0.2c0,0-0.3,0-0.3,0.2v63.8
		c-1.7,12.1-14.3,21.1-29.4,21.1h-2.4c-16.2,0-29.3-11.3-29.3-25.2V97c0-0.1-0.2-0.2-0.6-0.2c0,0-0.3,0-0.3,0.2v59.7
		c0,14,13.6,25.4,30.2,25.4h2.4c11,0,22.2-5.1,26-11.9l3.4-6.1v30.6c0,13.8-13.2,25-29.3,25h-2.4c-14.9,0-27.8-6.8-31.4-16.7
		C234.9,202.8,234.5,202.7,234.1,202.9z"/>
	<path d="M354.3,183.9c-13.9,0-24.8-9.3-24.8-21V59.4c0-1.3,1.1-2,2.1-2c1.3,0,2.4,0.6,2.4,2v103.4c0,9.5,9,17.3,20.3,17.3
		c1.5,0,2.3,0.9,2.3,2C356.7,183,355.8,183.9,354.3,183.9z"/>
	<path d="M354.3,185.7c-14.9,0-26.6-10-26.6-22.8V59.4c0-2.1,1.7-3.8,3.9-3.8c2.5,0,4.1,1.5,4.1,3.8v103.4c0,8.5,8.3,15.4,18.5,15.4
		c2.4,0,4.1,1.6,4.1,3.8C358.4,183.8,357,185.7,354.3,185.7z M331.7,59.2c0,0-0.3,0-0.3,0.2v103.4c0,10.8,10.1,19.2,23,19.2
		c0.4,0,0.6-0.1,0.6-0.1c0,0-0.4,0-0.6,0c-12.2,0-22.1-8.6-22.1-19.1V59.4C332.3,59.3,332.1,59.2,331.7,59.2z"/>
	<path d="M434.4,141.1h-59.6v15.9c0,12.8,12.4,23.2,27.5,23.2h2.3c11.9,0,22.2-6.7,26-15.8c0.2-0.9,1.1-1.3,2-1.3
		c1.3,0,2.5,0.7,2.5,1.8c0,0.2-0.1,0.6-0.1,0.7c-4.3,10.6-16.3,18.3-30.4,18.3h-2.3c-17.7,0-32-12-32-26.9V122
		c0-14.9,14.7-27,32.2-27h1.7c17.7,0,32.4,11.2,32.4,27v17.1C436.6,140.1,435.6,141.1,434.4,141.1z M432.2,122
		c0-12.8-12.3-23.2-27.5-23.2h-2.1c-15.1,0-27.7,10.4-27.7,23.2v15.3h57.4V122z"/>
	<path d="M404.6,185.7h-2.3c-18.6,0-33.8-12.9-33.8-28.8V122c0-15.8,15.3-28.8,34-28.8h1.7c19.5,0,34.2,12.4,34.2,28.8v17.1
		c0,2.1-1.9,3.8-4.1,3.8h-57.8v14.1c0,11.8,11.5,21.4,25.7,21.4h2.3c10.9,0,20.8-5.9,24.4-14.7c0.2-1.4,1.7-2.4,3.6-2.4
		c2.5,0,4.3,1.6,4.3,3.6c0,0.4-0.1,0.8-0.2,1l-0.1,0.4C432,177.9,419.1,185.7,404.6,185.7z M402.5,96.8c-16.8,0-30.4,11.3-30.4,25.2
		v34.9c0,13.9,13.6,25.2,30.2,25.2h2.3c12.9,0,24.4-6.8,28.6-17c0-0.1,0-0.1,0.1-0.2c-0.2,0-0.4-0.1-0.6-0.1
		c-4.5,10.3-15.6,17.1-28,17.1h-2.3c-16.2,0-29.3-11.2-29.3-25v-17.6h61.4c0.3,0,0.5-0.2,0.6-0.2l0-17.1c0-14.3-13.2-25.2-30.7-25.2
		H402.5z M434,139.1h-61V122c0-13.8,13.3-25,29.5-25h2.1c16.2,0,29.4,11.2,29.4,25L434,139.1L434,139.1z M376.6,135.5h53.8V122
		c0-11.8-11.6-21.4-25.8-21.4h-2.1c-14.3,0-25.9,9.6-25.9,21.4V135.5z"/>
	<path d="M522.7,183.9c-1,0-2.1-0.7-2.1-1.9v-59.7c0-13-12.6-23.4-27.8-23.4h-2.1c-15.2,0-27.8,9.7-27.8,21.6v61.5
		c0,1.2-1,1.9-2.4,1.9c-1,0-2.1-0.7-2.1-1.9V97c0-1.2,1.1-1.8,2.1-1.8c1.3,0,2.4,0.5,2.4,1.8v11.1c4.1-7.7,16.1-13.1,27.8-13.1h2.1
		c17.7,0,32.3,12,32.3,27.2v59.7C525,183.1,523.8,183.9,522.7,183.9z"/>
	<path d="M522.7,185.7c-2.2,0-3.9-1.7-3.9-3.8v-59.7c0-11.9-11.6-21.6-26-21.6h-2.1c-14.1,0-25.9,9-25.9,19.8v61.5
		c0,2.2-1.8,3.8-4.2,3.8c-2.2,0-3.9-1.7-3.9-3.8V97c0-2.1,1.6-3.6,3.9-3.6c2.5,0,4.2,1.4,4.2,3.6v5.8c5.7-5.8,15.7-9.6,25.9-9.6h2.1
		c18.8,0,34.1,13,34.1,29v59.7C526.9,184.2,524.7,185.7,522.7,185.7z M490.7,97h2.1c16.3,0,29.6,11.3,29.6,25.2v59.7
		c0,0.2,0.3,0.2,0.3,0.2c0.3,0,0.6-0.1,0.6-0.2l0-59.7c0-14-13.6-25.4-30.4-25.4h-2.1c-11.3,0-22.5,5.2-26.2,12.2l-3.3,6.5V97
		c0,0-0.3,0-0.6,0c-0.2,0-0.3,0.1-0.4,0.1l0.1,84.8c0,0.2,0.3,0.2,0.3,0.2c0.4,0,0.6-0.1,0.6-0.1l0-61.6
		C461.1,107.5,474.4,97,490.7,97z"/>
	<path d="M558.3,162.8V99.1h-11.5c-3.2,0-3.2-3.8,0-3.8h11.5V59.2c0-2.5,4.5-2.5,4.5,0v36.2h19c3,0,3,3.8,0,3.8h-19v63.7
		c0,9.5,8.8,17.3,20.2,17.3c3,0,3,3.8,0,3.8C568.9,183.9,558.3,174.5,558.3,162.8z"/>
	<path d="M583,185.7c-14.9,0-26.5-10-26.5-22.8V101h-9.7c-2.7,0-4.2-1.9-4.2-3.7c0-1.8,1.5-3.7,4.2-3.7h9.7V59.2
		c0-2.1,1.8-3.7,4.1-3.7c2.2,0,4,1.6,4,3.7v34.4h17.2c2.7,0,4.1,1.9,4.1,3.7c0,1.8-1.4,3.7-4.1,3.7h-17.2v61.9
		c0,8.7,8.1,15.4,18.5,15.4c2.7,0,4.1,1.9,4.1,3.7C587.1,183.8,585.6,185.7,583,185.7z M546.2,97.3c0.1,0,0.2,0.1,0.6,0.1H560v65.5
		c0,10.8,10.1,19.2,23,19.2c0.3,0,0.5-0.1,0.5-0.1c0,0-0.2-0.1-0.5-0.1c-12.3,0-22-8.4-22-19.1V97.3h20.8c0.4,0,0.4-0.1,0.4-0.1
		s-0.1-0.1-0.4-0.1h-20.8v-38c0,0-0.9,0-0.9,0l0,37.9h-13.3C546.3,97.2,546.2,97.2,546.2,97.3L546.2,97.3z"/>
</g>
</svg>
