<?xml version="1.0" encoding="utf-8"?>
<!-- Generator: Adobe Illustrator 16.0.0, SVG Export Plug-In . SVG Version: 6.00 Build 0)  -->
<!DOCTYPE svg PUBLIC "-//W3C//DTD SVG 1.1//EN" "http://www.w3.org/Graphics/SVG/1.1/DTD/svg11.dtd">
<svg version="1.1" id="Layer_1" xmlns="http://www.w3.org/2000/svg" xmlns:xlink="http://www.w3.org/1999/xlink" x="0px" y="0px"
	 width="400px" height="160px" viewBox="0 0 400 160" enable-background="new 0 0 400 160" xml:space="preserve">
<g>
	<path fill="#E0234C" d="M30.8,24.64c0-5.92-1.44-10.32-8-10.32c-6.56,0-8,4.4-8,10.32v16.08c0,4.88,0.88,9.68,3.2,13.76l22.16,38
		c3.2,5.279,5.04,11.84,5.04,18.56v24.08c0,14.8-8.96,22.88-23.6,22.399C9.6,157.12,0,147.2,0,135.12v-6.64
		c0-1.761,0.8-3.44,2.16-4.561l11.76-9.68v20.08c0,7.199,2.72,11.439,8.88,11.439c5.68,0,8.48-4.24,8.48-11.439v-21.36
		c0-5.28-1.04-9.28-4-14.56L6.72,62.64c-3.76-6.48-5.84-11.6-5.84-19.36v-18.4c0-14.96,7.84-22.4,22-22.4
		c15.52,0,21.92,7.36,21.92,21.36v4.96c0,2-0.88,3.92-2.48,5.2L30.8,43.28V24.64z"/>
	<path fill="#E0234C" d="M101.92,16.88H83.36V8.4c0-1.84,1.52-3.36,3.36-3.36h51.92l-7.2,11.84h-15.6v140.64h-13.92V16.88
		L101.92,16.88z"/>
	<path fill="#E0234C" d="M185.6,157.52h-13.92L189.36,5.04h14.4c3.36,0,6.16,2.48,6.561,5.84l17.039,146.64h-13.92L199.68,31.92
		h-0.4L185.6,157.52z"/>
	<path fill="#E0234C" d="M295.84,24c0-6.56-2.32-9.68-7.84-9.68s-7.84,3.2-7.84,9.68v111.92c0,6.561,2.32,9.68,7.84,9.68
		s7.84-3.199,7.84-9.68v-9.439c0-2.08,1.04-4,2.801-5.041l11.119-6.799v21.76c0,12.879-7.199,21.119-21.76,21.119
		s-21.76-8.24-21.76-21.119V23.6c0-12.88,7.199-21.12,21.76-21.12s21.76,8.24,21.76,21.12V30c0,1.28-0.56,2.56-1.6,3.36l-12.4,10.32
		V24H295.84z"/>
	<path fill="#E0234C" d="M384.16,5.04h13.92L378,74.72l22,82.8h-13.92l-18.8-76.479h-0.4v76.479h-13.92V7.04
		c0-1.12,0.96-2.08,2.08-2.08h11.84v65.52h0.4L384.16,5.04z"/>
</g>
</svg>
