<?xml version="1.0" encoding="utf-8"?>
<!-- Generator: Adobe Illustrator 21.0.2, SVG Export Plug-In . SVG Version: 6.00 Build 0)  -->
<svg version="1.1" id="Layer_1" xmlns="http://www.w3.org/2000/svg" xmlns:xlink="http://www.w3.org/1999/xlink" x="0px" y="0px"
	 viewBox="0 0 920 895.9" style="enable-background:new 0 0 920 895.9;" xml:space="preserve">
<g>
	<path d="M86.6,726h10.3l20.7,48.6l20.3-48.6h10.3v74.5h-10.9v-46.5h-0.2L122,789.8h-9.1l-15.1-35.8h-0.2v46.5H86.6V726z"/>
	<path d="M235,726h46.1v10.6H246V758h30v10h-30v21.9h35.2v10.6H235V726z"/>
	<path d="M374.9,769.9L353.2,726h11.6l15.3,33.1l15.3-33.1H407l-21.7,43.9v30.7h-10.3V769.9z"/>
	<path d="M513,783.9h-27.4l-5.5,16.7h-11.6l26.2-74.5h9.2l26.2,74.5h-11.5L513,783.9z M509.9,773.9l-10.4-32.6h-0.2l-10.4,32.6
		H509.9z"/>
	<path d="M735,783.9h-27.4l-5.5,16.7h-11.6l26.2-74.5h9.2l26.2,74.5h-11.5L735,783.9z M731.9,773.9l-10.4-32.6h-0.2l-10.4,32.6
		H731.9z"/>
	<path d="M605.1,787.9h9.9v10.2h-9.9V787.9z"/>
	<path d="M822.9,726h10.5v74.5h-10.5V726z"/>
</g>
<g>
	<path d="M460,92.8c-156.2,0-283.3,134.6-283.3,300.1v227.6h111h10.9h322.2h10.9h111V398.4h0.5v-5.5
		C743.3,227.4,616.2,92.8,460,92.8z M620.9,609.5H298.7V509.4H399c2.8,31.1,28.9,55.5,60.7,55.5c33.6,0,61-27.4,61-61v-5.5h-111
		V398.4h211.2V609.5z M398.8,498.5H298.7V398.4h100.1V498.5z M410,509.4h99.5c-2.7,25-24,44.6-49.8,44.6
		C434,554,412.7,534.5,410,509.4z M731.9,387.5v222.1H631.8V387.5H409.7h-122v122v100.1H187.6l0-216.6
		c0-159.5,122.2-289.2,272.4-289.2c148.5,0,269.6,126.8,272.3,283.7H731.9z"/>
	<path d="M570.8,476.3c15.4,0,27.9-12.5,27.9-27.9c0-15.4-12.5-27.9-27.9-27.9c-15.4,0-27.9,12.5-27.9,27.9
		C542.9,463.8,555.4,476.3,570.8,476.3z M570.8,431.5c9.3,0,17,7.6,17,17c0,9.3-7.6,17-17,17s-17-7.6-17-17
		C553.9,439.1,561.5,431.5,570.8,431.5z"/>
	<path d="M346.4,476.3c15.4,0,27.9-12.5,27.9-27.9c0-15.4-12.5-27.9-27.9-27.9c-15.4,0-27.9,12.5-27.9,27.9
		C318.5,463.8,331,476.3,346.4,476.3z M346.4,431.5c9.3,0,17,7.6,17,17c0,9.3-7.6,17-17,17c-9.3,0-17-7.6-17-17
		C329.5,439.1,337.1,431.5,346.4,431.5z"/>
</g>
</svg>
