<?xml version="1.0" encoding="utf-8"?>
<!-- Generator: Adobe Illustrator 17.0.0, SVG Export Plug-In . SVG Version: 6.00 Build 0)  -->
<!DOCTYPE svg PUBLIC "-//W3C//DTD SVG 1.1//EN" "http://www.w3.org/Graphics/SVG/1.1/DTD/svg11.dtd">
<svg version="1.1" id="Layer_1" xmlns="http://www.w3.org/2000/svg" xmlns:xlink="http://www.w3.org/1999/xlink" x="0px" y="0px"
	 width="612px" height="792px" viewBox="0 0 612 792" enable-background="new 0 0 612 792" xml:space="preserve">
<polygon fill="#3CBB9D" points="244.167,156.126 245.931,159.09 251.21,150.197 252.974,153.173 256.441,153.149 251.333,143.692 
	"/>
<polygon fill="#D01386" points="245.913,159.09 260.223,159.078 261.874,156.051 251.131,156.106 252.956,153.173 251.205,150.172 
	"/>
<polygon fill="#F1C219" points="251.315,143.692 256.417,153.165 252.956,153.173 251.131,156.106 261.874,156.051 254.742,143.692 
	"/>
<polygon fill="#C31C74" points="250.8,150.846 252.048,152.991 249.77,156.854 261.439,156.843 261.874,156.046 251.132,156.101 
	252.956,153.168 251.205,150.167 "/>
<polygon fill="#D8AD28" points="251.315,143.687 256.417,153.16 252.956,153.168 251.131,156.101 251.96,156.096 253.312,153.829 
	257.724,153.829 252.187,143.687 "/>
<polygon fill="#0AB08F" points="245.564,158.434 245.976,159.127 251.268,150.222 253.019,153.211 256.496,153.211 256.214,152.692 
	253.599,152.692 251.325,148.469 "/>
</svg>
