<?xml version="1.0" encoding="utf-8"?>
<!-- Generator: Adobe Illustrator 16.0.0, SVG Export Plug-In . SVG Version: 6.00 Build 0)  -->
<!DOCTYPE svg PUBLIC "-//W3C//DTD SVG 1.1//EN" "http://www.w3.org/Graphics/SVG/1.1/DTD/svg11.dtd">
<svg version="1.1" id="Layer_1" xmlns="http://www.w3.org/2000/svg" xmlns:xlink="http://www.w3.org/1999/xlink" x="0px" y="0px"
	 width="166.292px" height="160.674px" viewBox="0 0 166.292 160.674" enable-background="new 0 0 166.292 160.674"
	 xml:space="preserve">
<g>
	<path fill-rule="evenodd" clip-rule="evenodd" fill="#FED766" d="M149.759,114.865c0,0-48.363,0.226-73.234,0.226
		c4.434-7.156,8.412-13.578,12.391-20c7.718,0,15.437,0,23.757,0c-5.592-9.904-10.727-19.187-16.041-28.365
		c-6.551-11.313-18.992-36.053-18.992-36.053h23.509c0,0,10.629,19.08,15.74,27.844"/>
	<polyline fill-rule="evenodd" clip-rule="evenodd" fill="#F04D4D" points="40.785,135.223 76.812,74.468 88.916,95.09 
		76.525,115.09 149.759,114.865 138.005,135.223 	"/>
	<path fill-rule="evenodd" clip-rule="evenodd" fill="#28B6C9" d="M77.641,30.672c0,0,12.441,24.739,18.992,36.053
		c5.314,9.179,10.449,18.461,16.041,28.365c-8.32,0-23.757,0-23.757,0L76.812,74.468l-36.027,60.755l-11.754-20.358
		c0,0,14.193-24.483,21.345-36.892"/>
</g>
</svg>
