<?xml version="1.0" encoding="utf-8"?>
<!-- Generator: Adobe Illustrator 16.0.0, SVG Export Plug-In . SVG Version: 6.00 Build 0)  -->
<!DOCTYPE svg PUBLIC "-//W3C//DTD SVG 1.1//EN" "http://www.w3.org/Graphics/SVG/1.1/DTD/svg11.dtd">
<svg version="1.1" id="Layer_1" xmlns="http://www.w3.org/2000/svg" xmlns:xlink="http://www.w3.org/1999/xlink" x="0px" y="0px"
	 width="543.414px" height="150px" viewBox="0 0 543.414 150" enable-background="new 0 0 543.414 150" xml:space="preserve">
<g id="estimote">
</g>
<g id="Pebble">
</g>
<g id="Spark">
</g>
<g id="Layer_4">
</g>
<g id="Layer_5">
</g>
<g id="Layer_6">
</g>
<g id="Base">
</g>
<g id="yelp">
</g>
<g id="Yext">
</g>
<g id="Estimote">
</g>
<g id="Microsoft">
</g>
<g id="Big_Viking">
</g>
<g id="_x35_00px">
</g>
<g id="Magnet_Forensics">
</g>
<g id="Guides">
</g>
<g id="Wit.Ai" display="none">
</g>
<g id="Layer_18">
</g>
<g id="Kik">
</g>
<g id="Layer_20">
</g>
<g id="Affirm">
</g>
<g id="Shopify">
</g>
<g id="apple">
</g>
<g id="velocity">
</g>
<g id="pagerduty">
</g>
<g id="Layer_26">
</g>
<g id="bitalino">
</g>
<g id="TextNow">
</g>
<g id="Uber">
</g>
<g id="mars">
</g>
<g id="twilio">
</g>
<g id="wit-ai">
</g>
<g id="indiegogo">
</g>
<g id="Layer_34">
</g>
<g id="cisco">
</g>
<g id="teespring">
</g>
<g id="sendgrid">
</g>
<g id="kloudless">
</g>
<g id="uwaterloo">
</g>
<g id="loblaws">
</g>
<g id="Layer_40">
</g>
<g id="Layer_41">
</g>
<g id="conrad">
</g>
<g id="ziggeo">
</g>
<g id="n36">
</g>
<g id="communitech">
	<g>
		<path fill="#007DC2" d="M362.979,51.514h42.207v14.42H391.47v38.338h-15.477V65.934h-13.365v-14.42H362.979z M332.028,38.852
			l11.605,20.048v-7.386h15.477v33.766l24.27,42.206l25.324-43.965V51.162h18.641l7.388-12.662H332.028V38.852z"/>
		<path fill="#231F20" d="M30.248,84.576h8.794v1.406c0,6.331-1.056,10.552-3.518,12.312c-2.462,1.758-7.387,2.812-15.476,2.812
			c-9.146,0-14.772-1.407-16.883-4.572C1.056,93.721,0,85.631,0,72.617c0-7.738,1.407-12.662,4.221-15.125
			c2.813-2.461,8.793-3.517,17.587-3.517c6.683,0,10.903,1.056,13.014,2.813c2.11,2.109,3.165,5.979,3.165,11.606v1.056h-8.09
			v-1.056c0-3.166-0.703-4.925-1.759-5.628c-1.055-0.704-3.868-1.407-7.737-1.407c-5.276,0-8.793,0.703-9.849,2.11
			c-1.055,1.406-1.759,5.275-1.759,11.607c0,8.793,0.353,14.067,1.407,15.476c1.055,1.759,4.221,2.462,9.496,2.462
			c4.221,0,7.035-0.352,8.441-1.407c1.407-1.055,1.759-2.812,1.759-5.979L30.248,84.576z"/>
		<path fill="#231F20" d="M68.938,62.064c-5.979,0-9.146,0.704-10.2,2.111c-1.056,1.406-1.407,6.683-1.407,15.476
			c0,6.683,0.703,10.552,1.759,11.958c1.055,1.407,4.572,2.111,10.2,2.111c5.275,0,8.441-0.704,9.496-2.111
			c1.056-1.406,1.759-5.979,1.759-13.717s-0.352-12.311-1.407-13.717C77.731,62.769,74.565,62.064,68.938,62.064 M69.642,54.679
			c8.441,0,13.717,1.407,16.18,4.221c2.462,2.813,3.517,8.793,3.517,18.642c0,10.553-1.055,17.234-3.517,20.049
			c-2.463,2.813-8.09,4.221-17.587,4.221c-8.441,0-13.717-1.406-16.179-4.221c-2.463-2.813-3.518-8.793-3.518-17.938
			c0-10.903,1.055-17.938,3.518-20.752C54.518,56.086,60.146,54.679,69.642,54.679"/>
		<path fill="#231F20" d="M155.11,55.031v46.075h-8.793V76.134c0-2.11,0-4.222,0-6.683v-3.519v-3.517h-0.352l-1.055,3.164
			l-1.056,3.166c-1.055,2.813-1.759,4.924-2.11,6.332l-10.2,26.026h-8.089l-10.2-25.676c-0.704-1.407-1.407-3.519-2.11-6.331
			l-1.056-3.166l-1.055-3.165h-0.352v3.165v3.518c0,2.463,0.352,4.924,0.352,6.684v24.973h-8.793V55.029h14.068l8.09,21.104
			c0.703,1.407,1.407,3.518,2.11,6.331l1.055,3.166l1.056,3.165h0.352l1.055-3.165l1.056-3.166c0.703-2.813,1.407-4.924,2.11-6.331
			l8.089-21.455h15.828V55.031L155.11,55.031z"/>
		<path fill="#231F20" d="M222.993,55.031v46.075H214.2V76.134c0-2.11,0-4.222,0-6.683v-3.519v-3.517h-0.352l-1.055,3.164
			l-1.056,3.166c-1.055,2.813-1.759,4.924-2.11,6.332l-10.2,26.026h-8.089l-10.2-25.676c-0.704-1.407-1.407-3.519-2.11-6.331
			l-1.056-3.166l-1.055-3.165h0.703v3.165v3.518c0,2.463,0.352,4.924,0.352,6.684v24.973h-8.793V55.029h14.068l8.09,21.104
			c0.704,1.407,1.407,3.518,2.11,6.331l1.055,3.166l1.056,3.165h0.352l1.056-3.165l1.055-3.166c0.703-2.813,1.407-4.924,2.11-6.331
			l8.09-21.455h14.772V55.031z"/>
		<path fill="#231F20" d="M266.959,55.031h8.793v30.601c0,6.331-1.055,10.552-3.518,12.662c-2.462,2.109-7.386,3.165-15.125,3.165
			c-8.089,0-13.365-1.056-15.827-2.813c-2.462-2.11-3.869-5.979-3.869-12.312V55.383h8.793v30.951c0,3.518,0.704,5.628,1.759,6.33
			c1.056,1.057,4.221,1.407,8.441,1.407c4.572,0,7.387-0.352,8.793-1.407c1.056-1.056,1.759-3.164,1.759-6.683V55.031
			L266.959,55.031z"/>
		<path fill="#231F20" d="M332.38,55.031v46.075h-14.771l-13.016-25.323c-0.702-1.408-1.758-3.519-3.165-6.684l-1.406-3.166
			l-1.406-3.165h-0.354v3.165V69.1v5.979v26.38h-8.793V55.381h14.772L316.2,78.596c1.055,2.109,2.109,4.572,3.518,7.387l1.758,3.869
			l1.76,3.869h0.352v-2.814v-2.813v-5.979V55.734h8.794L332.38,55.031L332.38,55.031z"/>
		<rect x="346.8" y="55.031" fill="#231F20" width="8.793" height="46.075"/>
		<polygon fill="#231F20" points="388.304,62.769 388.304,100.755 379.511,100.755 379.511,62.769 366.146,62.769 366.146,55.031 
			401.669,55.031 401.669,62.769 		"/>
		<polygon fill="#231F20" points="420.311,62.064 420.311,74.023 441.766,74.023 441.766,80.705 420.311,80.705 420.311,93.721 
			443.173,93.721 443.173,100.755 411.518,100.755 411.518,55.031 442.821,55.031 442.821,62.064 		"/>
		<g>
			<path fill="#231F20" d="M484.324,84.576h8.793v1.406c0,6.331-1.055,10.552-3.518,12.312c-2.463,1.758-7.387,2.812-15.477,2.812
				c-9.145,0-14.772-1.407-16.883-4.572c-2.109-2.812-3.165-10.902-3.165-23.917c0-7.738,1.407-12.662,4.221-15.125
				c2.813-2.461,8.793-3.517,17.586-3.517c6.684,0,10.903,1.056,13.015,2.813c2.109,2.109,3.166,5.979,3.166,11.606v1.056h-8.794
				v-1.056c0-3.166-0.703-4.925-1.759-5.628c-1.055-0.704-3.869-1.407-7.737-1.407c-5.275,0-8.794,0.703-9.849,2.11
				c-1.056,1.406-1.759,5.275-1.759,11.607c0,8.793,0.352,14.067,1.407,15.476c1.055,1.759,4.221,2.462,9.496,2.462
				c4.221,0,7.035-0.352,8.44-1.407c1.407-1.055,1.759-2.812,1.759-5.979L484.324,84.576z"/>
		</g>
		<polygon fill="#231F20" points="543.414,55.031 543.414,100.755 534.973,100.755 534.973,81.059 513.518,81.059 513.518,100.755 
			504.725,100.755 504.725,55.031 513.518,55.031 513.518,73.672 534.973,73.672 534.973,55.031 		"/>
	</g>
</g>
</svg>
