<?xml version="1.0" encoding="utf-8"?>
<!-- Generator: Adobe Illustrator 18.1.1, SVG Export Plug-In . SVG Version: 6.00 Build 0)  -->
<svg version="1.1" xmlns="http://www.w3.org/2000/svg" xmlns:xlink="http://www.w3.org/1999/xlink" x="0px" y="0px"
	 viewBox="0 0 207.3 100" enable-background="new 0 0 207.3 100" xml:space="preserve">
<g id="Loblaw_Digital">
</g>
<g id="Phoenix">
</g>
<g id="Magnet_Forensics_1_">
</g>
<g id="Bloomberg">
</g>
<g id="Wish">
</g>
<g id="lani">
</g>
<g id="Yelp">
</g>
<g id="Mozilla">
</g>
<g id="Microsoft">
	<g id="Microsoft_1_">
		<g id="Layer_2_1_">
			<g>
				<path fill="#F05225" d="M0,30.1h21.1c0,7,0,14,0,21.1c-7,0-14,0-21.1,0V30.1L0,30.1z"/>
				<path fill="#80BB41" d="M23.2,30.1h21.1c0,7,0,14,0,21.1c-7,0-14,0-21.1,0C23.2,44.1,23.2,37.1,23.2,30.1L23.2,30.1z"/>
				<path fill="#787878" d="M92.4,38.3c0.9-0.2,2,0.2,2.6,0.9c0.8,0.8,0.9,2,0.3,2.9c-0.6,1.1-1.8,1.5-3,1.2
					c-1.2-0.2-2.1-1.4-2.1-2.6C90,39.7,91.2,38.4,92.4,38.3L92.4,38.3z"/>
				<path fill="#787878" d="M57.4,38.9c2.3,0,4.4,0,6.7,0c2.1,5.3,4.1,10.5,6.2,15.7c0.6,1.4,1.1,2.6,1.5,4
					c2.7-6.5,5.3-13.1,7.9-19.6c2.1,0,4.3,0,6.4,0c0,8.8,0,17.6,0,26.6c-1.5,0-3,0-4.6,0c0-6.5,0-13.1,0-19.6c0-0.3,0-0.6,0-0.9
					c-0.2,0.2-0.2,0.3-0.3,0.5c-2.6,6.7-5.3,13.4-7.9,20.1c-1.1,0-2.1,0-3.3,0C67.5,58.8,64.7,52,62,45.3c0-0.2-0.2-0.3-0.2-0.5
					c0,2.9,0,5.8,0,8.5c0,4,0,7.9,0,11.9c-1.5,0-2.9,0-4.3,0C57.4,56.5,57.4,47.7,57.4,38.9L57.4,38.9z"/>
				<path fill="#787878" d="M104.8,46.3c2.1-0.6,4.6-0.6,6.7,0c0.5,0.2,0.9,0.3,1.2,0.6c0,1.5,0,2.9,0,4.4c-1.5-1.1-3.3-1.8-5.2-1.7
					c-1.5,0.2-2.9,0.9-3.8,2.1c-1.2,1.5-1.4,3.5-1.2,5.3c0.2,1.4,0.8,2.9,1.8,3.8c1.2,1.1,2.7,1.4,4.3,1.2c1.5-0.2,2.9-0.8,4.1-1.7
					c0,1.4,0,2.7,0,4.1c-1.8,1.1-4.1,1.4-6.2,1.2c-2.1-0.2-4.4-0.9-5.9-2.4c-1.7-1.7-2.6-4-2.7-6.4c-0.2-2.4,0.5-5,1.8-7.1
					C101.1,48.2,102.9,47,104.8,46.3L104.8,46.3z"/>
				<path fill="#787878" d="M154.7,46c2.1-0.3,4.3-0.2,6.4,0.6c0,1.4,0,2.7,0,4.3c-1.4-0.9-3-1.5-4.9-1.4c-0.9,0-1.8,0.5-2.1,1.2
					c-0.3,0.8-0.2,1.8,0.6,2.3c1.2,0.9,2.9,1.2,4.3,2c1.1,0.6,2.1,1.4,2.6,2.4c1.1,2.1,0.6,4.9-1.2,6.4c-1.7,1.5-4.1,2-6.4,2
					c-1.5-0.2-3.2-0.5-4.6-1.1c0-1.5,0-2.9,0-4.4c1.2,0.9,2.6,1.5,4.1,1.8c1.1,0.2,2.1,0.2,3.2-0.3c0.9-0.5,1.1-1.8,0.6-2.6
					c-0.5-0.6-1.2-0.9-2-1.2c-1.4-0.6-2.7-1.1-4-2c-0.8-0.6-1.5-1.5-1.7-2.6c-0.3-1.5-0.3-3.2,0.6-4.6
					C151.2,47.4,152.9,46.3,154.7,46L154.7,46z"/>
				<path fill="#787878" d="M123.1,46.7c1.2-0.8,2.9-0.8,4.3-0.3c0,1.5,0,3,0,4.6c-0.9-0.6-2-0.9-3-0.8c-1.2,0.2-2.3,1.2-2.9,2.3
					c-0.6,1.2-0.6,2.6-0.6,3.8c0,3,0,6.1,0,9.1c-1.5,0-3,0-4.6,0c0-6.4,0-12.6,0-19c1.5,0,3,0,4.6,0c0,1.1,0,2.1,0,3.3
					C121.3,48.5,122,47.4,123.1,46.7L123.1,46.7z"/>
				<path fill="#787878" d="M90.4,46.3c1.5,0,3,0,4.6,0c0,6.4,0,12.6,0,19c-1.5,0-3,0-4.6,0C90.4,59.1,90.4,52.7,90.4,46.3
					L90.4,46.3z"/>
				<path fill="#787878" d="M146.3,50.9c-0.8-1.8-2.3-3.2-4-4c-2-0.9-4.3-1.1-6.5-0.8c-2.3,0.3-4.6,1.4-5.9,3.2
					c-1.4,1.7-2,3.8-2.1,5.8c-0.2,2.4,0.2,5,1.7,7.1c1.2,1.8,3.2,3,5.3,3.5c1.7,0.3,3.6,0.3,5.3,0c2-0.5,4-1.5,5.2-3.2
					c1.2-1.5,1.8-3.5,2-5.6C147.2,54.9,147.1,52.7,146.3,50.9z M141.9,59.6c-0.5,0.9-1.2,1.8-2.3,2.1c-1.2,0.5-2.4,0.5-3.6,0.2
					c-1.2-0.3-2.3-1.2-2.9-2.4c-0.8-1.5-0.9-3.2-0.8-4.7c0.2-1.5,0.6-3,1.8-4c0.8-0.8,2-1.1,3-1.2c1.4-0.2,2.9,0.3,3.8,1.2
					c1.1,1.1,1.5,2.6,1.5,4C142.5,56.5,142.5,58.2,141.9,59.6z"/>
				<path fill="#787878" d="M182.8,51.4c-0.8-1.8-2.1-3.5-4-4.4c-2.1-1.1-4.6-1.2-6.7-0.9c-1.8,0.2-3.6,0.9-5,2.1
					c-1.7,1.5-2.7,3.6-3,5.8c-0.3,2.3-0.2,4.6,0.8,6.7c0.9,2,2.6,3.6,4.6,4.6c2,0.8,4.3,0.9,6.4,0.6c2.1-0.3,4.3-1.5,5.6-3.3
					s2.1-4.3,2-6.5C183.4,54.4,183.3,52.9,182.8,51.4z M178.5,57.9c-0.2,1.1-0.6,2-1.2,2.7c-0.6,0.8-1.7,1.2-2.7,1.4
					c-1.1,0.2-2.3,0.2-3.2-0.3c-1.1-0.5-2-1.4-2.4-2.6c-0.6-1.4-0.6-2.7-0.6-4.1c0.2-1.4,0.5-2.7,1.4-3.8c0.8-0.9,2.1-1.5,3.3-1.7
					c1.2-0.2,2.7,0.2,3.6,1.1c0.9,0.8,1.4,1.8,1.7,3C178.9,55.2,178.9,56.5,178.5,57.9z"/>
				<path fill="#787878" d="M207.3,50.1v-3.6c-1.5,0-3,0-4.6,0c0-2,0-3.8,0-5.6c-1.5,0.5-3,0.9-4.6,1.4c0,1.4,0,2.9,0,4.3
					c-2.3,0-4.4,0-6.7,0c0-1.1-0.2-2.3,0.2-3.5c0.2-0.9,0.6-1.8,1.5-2.1c1.1-0.5,2.3-0.2,3.3,0.3c0-1.2,0-2.6,0-4
					c-2.1-0.6-4.7-0.5-6.7,0.8c-1.2,0.8-2.1,2.1-2.6,3.5c-0.5,1.5-0.2,3.2-0.3,4.9c-1.1,0-2.1,0-3.2,0c0,1.2,0,2.4,0,3.6
					c1.1,0,2.1,0,3.2,0c0,5.2,0,10.2,0,15.3c1.5,0,3,0,4.6,0c0-5.2,0-10.2,0-15.3c2.3,0,4.4,0,6.7,0c0,3.2,0,6.5,0,9.7
					c0,1.5,0.3,3.2,1.2,4.4c0.9,1.1,2.3,1.5,3.6,1.7c1.4,0.2,2.9-0.2,4.1-0.6v-3.8c-1.1,0.6-2.4,0.9-3.5,0.3
					c-0.6-0.3-0.9-1.1-0.9-1.8c-0.2-1.2,0-2.4-0.2-3.5c0-2.1,0-4.3,0-6.4C204.2,50.1,205.7,50,207.3,50.1z"/>
				<path fill="#35A0DA" d="M0,53.2c7,0,14,0,21.1,0c0,7,0,14,0,21.1H0V53.2L0,53.2z"/>
				<path fill="#FDB813" d="M23.2,53.2c7,0,14,0,21.1,0c0,7,0,14,0,21.1H23.2C23.2,67.3,23.2,60.3,23.2,53.2L23.2,53.2z"/>
			</g>
		</g>
	</g>
</g>
<g id="Facebook">
</g>
<g id="Kik_1_">
</g>
<g id="D2L">
</g>
<g id="Linode">
</g>
<g id="Braintree">
</g>
<g id="Velocity">
</g>
<g id="citi">
</g>
<g id="Course_Hero">
</g>
<g id="square">
</g>
<g id="Capco">
</g>
</svg>
