<svg xmlns="http://www.w3.org/2000/svg" viewBox="0 0 543.34668 88.626663" height="88.627" width="543.347"><defs><clipPath id="a"><path d="M0 0h4075v664.746H0z"/></clipPath></defs><g clip-path="url(#a)" transform="matrix(.13333 0 0 -.13333 0 88.627)"><path d="M2488.82 664.746l85.75-149.141v54.27h114.8V315.938L2870.99 0l189.08 328.504v241.348h138.91l54.61 94.894zm231.23-94.894h316.94V462.098h-102.48V175.703h-114.79l-.03 286.395h-99.64v107.754" fill="#2d7ac8"/><path d="M225.344 323.309h65.586v-11.844c0-47.852-8.735-78.77-26.219-92.793-17.481-14.004-56.125-21.035-115.961-21.035-67.906 0-109.672 11.113-125.305 33.301C7.805 253.145 0 312.48 0 408.953c0 56.84 10.566 94.18 31.758 112.094 21.187 17.898 65.469 26.875 132.871 26.875 49.07 0 81.859-7.406 98.312-22.16 16.489-14.766 24.715-44.09 24.715-87.942l.246-7.832h-65.586v8.867c0 22.59-4.214 37.071-12.683 43.379-8.457 6.34-27.801 9.524-57.961 9.524-40.41 0-64.688-4.953-72.805-14.863-8.133-9.934-12.195-39.258-12.195-88.137 0-65.797 3.64-104.735 10.945-116.824 7.305-12.09 30.91-18.125 70.867-18.125 32.375 0 53.391 3.32 63.036 10.019 9.656 6.68 14.488 21.387 14.488 44.082l-.664 15.399m296.133 224.613c62.441 0 102.668-10.414 120.609-31.156 17.988-20.77 26.957-67.207 26.957-139.336 0-78.817-9.008-128.504-27.09-149.012-18.031-20.508-61.719-30.781-131.055-30.781-62.441 0-102.839 10.136-121.14 30.41-18.293 20.254-27.434 64.844-27.434 133.777 0 82.031 8.965 133.535 26.953 154.543 17.942 21.016 62.032 31.555 132.2 31.555m-5.024-56.164c-43.609 0-69.094-5.637-76.426-16.887-7.359-11.23-11.023-50.176-11.023-116.824 0-49.348 4.293-79.074 12.894-89.141 8.594-10.058 33.954-15.097 76.043-15.097 40.243 0 64.375 5.644 72.379 16.992 8.032 11.336 12.039 45.703 12.039 103.105 0 57.586-3.785 91.621-11.398 102.11-7.617 10.476-32.445 15.742-74.508 15.742m646.347 53.347V200.449h-65.28v187.918c0 15 .42 31.985 1.27 51.008l1.26 25.762 1.24 25.468h-2.01l-7.81-23.984-7.59-23.945c-7.06-21.563-12.54-37.461-16.41-47.735l-75.798-194.492h-59.621l-76.543 192.969c-4.219 10.605-9.785 26.531-16.668 47.742l-7.832 23.977-7.832 23.679h-2.024l1.282-24.961 1.238-25.222c1.016-19.543 1.519-36.27 1.519-50.266V200.449h-65.273v344.656h106.465l61.637-159.5c4.21-11.125 9.757-27.019 16.668-47.726l7.589-23.992 7.813-23.77h2.277l7.321 23.77 7.589 23.73c6.235 20.012 11.629 35.84 16.153 47.461l60.64 160.027h108.73m509.61 0V200.449h-65.28v187.918c0 15 .42 31.985 1.28 51.008l1.25 25.762 1.25 25.468h-2.03l-7.8-23.984-7.58-23.945c-7.07-21.563-12.56-37.461-16.41-47.735l-75.81-194.492h-59.62l-76.55 192.969c-4.2 10.605-9.77 26.531-16.67 47.742l-7.83 23.977-7.83 23.679h-2.01l1.26-24.961 1.26-25.222c1.01-19.543 1.51-36.27 1.51-50.266V200.449h-65.27v344.656H1376l61.63-159.5c4.21-11.125 9.76-27.019 16.67-47.726l7.59-23.992 7.81-23.77h2.27l7.33 23.77 7.59 23.73c6.24 20.012 11.63 35.84 16.14 47.461l60.65 160.027h108.73m328.52 0h65.28V315.887c0-47.918-9.22-79.578-27.68-95.028-18.42-15.488-56.14-23.222-113.1-23.222-60.13 0-99.55 7.324-118.26 21.933-18.69 14.61-28.04 45.45-28.04 92.528v233.007h65.29V312.098c0-25.282 4.56-41.336 13.69-48.133 9.09-6.758 30.53-10.156 64.3-10.156 34.62 0 56.37 3.437 65.24 10.293 8.85 6.875 13.28 23.71 13.28 50.527v230.476m491.14 0V200.449H2381.4l-98.32 189.18c-4.85 9.441-12.48 25.937-22.93 49.5l-11.1 24.726-10.83 24.719h-2.52l1.01-22.695.77-22.453.49-45.196V200.449h-65.27v344.656h110.65l89.5-174.656c7.89-15.519 17.03-34.289 27.46-56.328l13.12-28.027 13.11-28.301h2.26l-.78 22.234-.74 22.239-.51 44.433v198.406h65.3m107.26-344.656h65.27v344.656h-65.27zm310.43 286.395V200.449h-65.27v286.395h-99.67v58.261h267.41v-58.261h-102.47m240.35 3.508v-89.133h162.13v-48.426h-162.13v-97.598h171.96v-54.746h-237.23v344.656h235.83v-54.753h-170.56m479.94-167.043h65.59v-11.844c0-47.852-8.75-78.77-26.21-92.793-17.5-14.004-56.14-21.035-115.97-21.035-67.91 0-109.68 11.113-125.3 33.301-15.65 22.207-23.46 81.542-23.46 178.015 0 56.84 10.57 94.18 31.76 112.094 21.19 17.898 65.47 26.875 132.88 26.875 49.05 0 81.86-7.406 98.29-22.16 16.51-14.766 24.73-44.09 24.73-87.942l.25-7.832h-65.58v8.867c0 22.59-4.22 37.071-12.68 43.379-8.48 6.34-27.81 9.524-57.97 9.524-40.41 0-64.69-4.953-72.81-14.863-8.15-9.934-12.2-39.258-12.2-88.137 0-65.797 3.64-104.735 10.96-116.824 7.29-12.09 30.91-18.125 70.87-18.125 32.37 0 53.38 3.32 63.04 10.019 9.64 6.68 14.48 21.387 14.48 44.082l-.67 15.399m445.08 221.796V200.449h-65.27v148.828h-161.44V200.449h-65.26v344.656h65.26V404.023h161.44v141.082h65.27" fill="#231f20"/></g></svg>