<?xml version="1.0" encoding="UTF-8" standalone="no"?>
<!-- Created with Inkscape (http://www.inkscape.org/) -->

<svg
   xmlns:dc="http://purl.org/dc/elements/1.1/"
   xmlns:cc="http://creativecommons.org/ns#"
   xmlns:rdf="http://www.w3.org/1999/02/22-rdf-syntax-ns#"
   xmlns:svg="http://www.w3.org/2000/svg"
   xmlns="http://www.w3.org/2000/svg"
   xmlns:sodipodi="http://sodipodi.sourceforge.net/DTD/sodipodi-0.dtd"
   xmlns:inkscape="http://www.inkscape.org/namespaces/inkscape"
   id="svg2985"
   version="1.1"
   inkscape:version="0.48.5 r10040"
   width="1000"
   height="1314.2548"
   xml:space="preserve"
   sodipodi:docname="A.svg"><metadata
     id="metadata2991"><rdf:RDF><cc:Work
         rdf:about=""><dc:format>image/svg+xml</dc:format><dc:type
           rdf:resource="http://purl.org/dc/dcmitype/StillImage" /><dc:title></dc:title></cc:Work></rdf:RDF></metadata><defs
     id="defs2989"><clipPath
       clipPathUnits="userSpaceOnUse"
       id="clipPath3077"><path
         d="m 0.015015,841.945 594.989995,0 0,-841.89 -594.989995,0 0,841.89 z"
         id="path3079"
         inkscape:connector-curvature="0" /></clipPath></defs><sodipodi:namedview
     pagecolor="#ffffff"
     bordercolor="#666666"
     borderopacity="1"
     objecttolerance="10"
     gridtolerance="10"
     guidetolerance="10"
     inkscape:pageopacity="0"
     inkscape:pageshadow="2"
     inkscape:window-width="1187"
     inkscape:window-height="1043"
     id="namedview2987"
     showgrid="false"
     fit-margin-left="0.5"
     fit-margin-bottom="0.5"
     fit-margin-top="0.5"
     fit-margin-right="0.5"
     inkscape:zoom="0.26198432"
     inkscape:cx="530.62879"
     inkscape:cy="96.616134"
     inkscape:window-x="728"
     inkscape:window-y="-21"
     inkscape:window-maximized="0"
     inkscape:current-layer="g2993" /><g
     id="g2993"
     inkscape:groupmode="layer"
     inkscape:label="wikimedia_casestudy_v1"
     transform="matrix(1.25,0,0,-1.25,-812.23402,2073.5761)"><path
       d="m 1449.3872,736.5225 c 0,-34.71384 -14.232,-54.856 -41.9997,-65.57248 -108.0307,-41.62608 -235.9319,-63.09296 -357.6003,-63.09296 -121.66832,0 -249.56953,21.46688 -357.60029,63.09296 -27.76769,10.71648 -41.99969,30.85864 -41.99969,65.57248 l 0,921.9384 799.19998,0 0,-921.9384"
       style="fill:#2b59af;fill-opacity:1;fill-rule:nonzero;stroke:none"
       id="path3933"
       inkscape:connector-curvature="0" /><path
       d="m 864.51644,1096.6363 c -110.64619,69.0712 -147.19424,99.658 -150.30219,144.9865 -0.54346,9.205 1.56247,24.7107 5.40068,35.8008 l -10.42774,6.9292 c -8.33879,-13.298 -13.63758,-30.7908 -13.63758,-46.8909 0,-26.1713 8.35578,-45.9568 18.64766,-61.7853 15.55669,-23.9464 31.91161,-38.9936 72.19599,-69.1899 43.40931,-32.5909 73.02818,-70.6166 90.09639,-110.3915 l 6.16494,0 0,45.1416 c 58.6773,-33.2702 110.39143,-64.6044 135.83241,-120.5983 l 6.1479,0 c -9.9522,58.0149 -42.7469,102.7489 -160.11846,175.9978"
       style="fill:#f9dd06;fill-opacity:1;fill-rule:nonzero;stroke:none"
       id="path3937"
       inkscape:connector-curvature="0" /><path
       d="m 1189.2541,1247.6858 c -24.2012,-10.8693 -40.8958,-25.5938 -55.7732,-46.721 l 49.4723,2.5644 c 1.7663,21.9764 4.6535,36.5651 6.3009,44.1566 m 178.2906,-176.5583 c 4.9761,12.0921 8.169,23.6916 9.0351,38.3991 l -72.2639,4.1101 c -3.2778,-20.2442 -8.6615,-37.8219 -14.4189,-52.2577 l 77.6477,9.7485 z m -78.2421,179.3436 c 5.1969,-13.9263 9.1201,-27.411 11.9563,-40.4032 l 42.5092,2.3606 c -14.6226,16.7794 -33.2703,29.9755 -54.4655,38.0426 m -19.293,-42.1355 c -7.2519,25.1013 -15.9303,42.577 -20.4818,50.78 -2.9042,0.1698 -5.8423,0.2547 -8.8144,0.2547 -4.8742,0 -9.8163,-0.6454 -14.5377,-1.1379 -7.031,-17.5607 -12.7544,-35.3082 -17.4248,-53.2766 l 61.2587,3.3798 z m 35.4611,-22.7747 c 2.2588,-18.1042 2.4966,-35.0875 1.3247,-50.7631 l 69.5466,3.6684 c -1.7832,15.7945 -6.2668,30.7568 -12.9922,44.4453 l -57.8791,2.6494 z m -23.6407,-52.0878 c -0.6963,19.7856 -3.1589,37.7029 -6.4876,53.4804 l -70.175,3.1928 c -4.8402,-21.3819 -7.9991,-42.2204 -9.4937,-61.2247 l 86.1563,4.5515 z m 10.8014,150.1834 8.2199,11.5485 -12.7545,17.0004 2.1399,3.7532 35.8348,-19.3099 -7.8123,-23.6748 c 5.7573,-2.8022 11.0731,-6.3008 18.1551,-11.0051 l 23.1652,38.0596 -59.934,31.3341 -132.4867,0 -107.5213,-64.6894 c 20.1932,-14.0282 38.7729,-29.1942 51.9859,-44.4792 28.8037,41.9487 79.4309,68.6804 129.5486,68.6804 16.4058,0 35.4781,-1.7323 51.4594,-7.2178 m -265.0753,3.7872 59.3566,35.597 c -11.6505,5.7574 -24.5409,9.4597 -39.8428,9.6635 -20.4479,0.3057 -54.97495,-9.12 -71.70349,-11.6675 7.48964,-5.0951 34.00059,-22.0444 52.18969,-33.593 m 12.16,133.9982 c -21.0763,4.6194 -32.8117,2.021 -44.9208,-9.5106 5.9102,-2.8532 13.3489,-4.3987 21.5518,-3.8043 11.8204,0.8322 19.1741,7.9312 23.369,13.3149 m 334.503,-500.8884 -7.4896,0 c 0,41.3034 -37.8897,52.5294 -77.5288,52.5294 l -123.9271,0 c 3.9911,-20.346 5.8593,-44.1906 2.7513,-66.67645 l -6.1479,0 c -11.4977,92.76275 -63.9252,138.75355 -137.2421,187.95415 l 0,-42.2204 -6.1479,0 c -19.47984,43.562 -62.29474,84.4748 -102.85085,113.4823 l 0.017,0 c -10.7844,7.6935 -21.94242,15.6586 -32.99855,23.5389 l 0,-45.5323 -6.14795,0 c -17.20412,45.1586 -48.41942,78.8705 -92.89867,119.002 -48.04575,43.2734 -67.44068,69.156 -78.68362,98.9107 -6.8103,18.0363 -8.7464,32.6079 -8.98417,52.4104 -0.45855,35.4103 17.44185,67.3898 39.7579,79.3291 l 0,-17.1361 c -11.07311,-14.6396 -16.79648,-33.1685 -16.83045,-52.0199 -0.034,-17.3739 4.10997,-36.7179 12.77145,-53.1917 27.05439,-51.5274 118.20374,-114.7562 176.08282,-153.563 180.00599,-120.7173 215.89169,-141.7935 245.79929,-205.8376 3.3287,-7.1499 6.6404,-16.7454 9.4087,-27.8695 26.0014,4.008 120.3267,18.359 137.7346,21.1102 3.3287,0.5265 10.2749,1.4097 13.8583,1.6304 16.2531,10.258 28.9566,23.369 40.0806,39.69 l -68.9692,5.3328 c -3.5495,-7.8973 -7.099,-14.5378 -10.1899,-19.8706 l -5.6385,0 c 1.9022,7.0141 3.5326,13.9094 4.9422,20.7028 l -17.6457,1.3416 0,3.7363 19.1232,2.3607 c 3.6175,19.5307 5.3837,37.9746 5.7573,55.2296 l -86.9205,4.9253 c -0.4585,-8.8993 -0.5435,-17.306 -0.2378,-25.1013 l -5.5875,0 c -1.8342,8.6953 -3.2777,17.289 -4.3986,25.6787 l -19.0553,1.1039 0,5.8083 18.1042,0.968 c -2.5475,23.0124 -2.7003,44.4623 -1.7663,62.9061 l -50.814,2.3268 c 2.3947,-4.4666 4.8742,-8.9842 6.6405,-13.9433 10.9542,-30.6209 8.3558,-66.5576 4.7383,-83.0994 l -6.1649,0 c -0.9001,19.1402 -7.3368,42.5602 -13.4168,56.8772 -14.0622,33.1344 -45.6002,62.4136 -98.4692,96.3632 l 0,-42.3393 -6.1479,0 c -17.5947,55.6203 -61.3437,86.5468 -126.40671,119.9699 -53.70118,27.547 -70.37878,60.7493 -67.33877,112.1408 l 18.13816,-10.7335 c 4.65342,-48.0797 41.57512,-75.8134 80.21211,-75.5248 22.75762,0.1699 44.07166,3.193 64.68938,7.3199 29.73773,6.0121 57.26763,11.141 80.22913,3.0061 l 0,28.379 -18.0363,0 c -6.4706,-5.5875 -19.5478,-12.0581 -38.8068,-12.3638 -21.19518,-0.3906 -61.25878,11.8203 -61.25878,56.5883 0,38.8918 32.91363,45.1077 59.69628,45.1077 14.3509,0 38.2124,0.5094 46.2625,0.968 5.9951,0.3736 10.4957,1.2737 13.3998,4.1609 3.04,2.989 3.9741,6.0631 4.6704,10.0371 0.8322,4.8063 0.8322,9.7485 0.8322,18.1042 l 0,28.3961 -124.16486,0 0,-49.1837 -46.99279,17.8665 0,11.7694 22.48588,0 0,19.5478 -83.77859,0 0,40.8449 -28.56591,0 c -15.26799,0 -32.86268,-10.6995 -34.10247,-31.4361 -1.18882,-19.8875 7.76137,-36.616 28.22625,-36.616 l 3.66838,0 0,-23.8107 -3.66838,0 c -35.86873,0 -62.88915,26.9357 -62.88915,62.6854 0,37.2444 31.74178,65.6066 70.09007,65.6066 l 60.57941,0 0,-40.8449 235.54136,0 0,-60.3417 c 0,-10.156 -0.5265,-23.8275 -1.5285,-32.455 -0.6963,-6.2839 -2.9381,-17.5947 -14.8434,-26.6809 -7.15,-5.4855 -17.9683,-7.6934 -35.546,-7.7443 -5.7404,-0.034 -22.452,0.2378 -42.4753,1.4946 -26.83358,1.6813 -34.45908,-8.6615 -35.52903,-18.291 -0.23777,-2.0211 -0.22078,-4.0082 0.017,-5.8762 12.53368,9.7313 30.33213,16.5925 50.52533,10.2239 35.546,-11.175 45.702,-12.1771 64.2138,2.3776 l 1.8682,-4.1779 c -2.004,-3.074 -5.5705,-7.5235 -10.7504,-11.4467 l 17.1701,0 0,-93.0006 53.4464,32.0475 150.0134,0 c 0,0 63.3987,-33.1343 73.8434,-38.62 9.2219,-4.8233 12.8224,-10.6825 14.249,-19.276 1.2058,-7.167 -0.6454,-16.253 -4.1779,-22.1122 -2.2078,-3.6175 -19.4289,-31.8608 -28.5489,-46.9419 25.5089,-27.5978 42.73,-66.2009 42.73,-109.1856 0,-38.9767 -14.4359,-89.2472 -61.2418,-126.6105 20.5837,-6.7085 33.7628,-17.9344 44.1396,-32.7099 l -14.5547,-49.5063"
       style="fill:#f9dd06;fill-opacity:1;fill-rule:nonzero;stroke:none"
       id="path3939"
       inkscape:connector-curvature="0" /><path
       d="m 1054.4576,721.05074 -28.3791,0 0,81.26512 27.0884,0 c 37.2274,0 51.5103,-11.07312 51.5103,-38.97672 0,-30.17928 -18.6476,-42.2884 -50.2196,-42.2884 m -2.2418,161.29038 c 22.4859,0 37.7709,-4.89119 37.7709,-28.92254 0,-25.6448 -20.4479,-32.67584 -43.783,-32.67584 l -20.1252,0 0,61.59838 26.1373,0 z m 45.2775,-68.54462 c 20.1422,3.27784 39.4012,18.9364 39.4012,42.64512 0,21.38195 -9.086,44.83587 -71.9752,44.83587 l -106.19652,0 0,-1.71531 c 3.2608,-0.95106 8.28784,-3.5495 11.63356,-6.84426 7.20092,-7.06505 9.57857,-17.57771 9.91825,-31.55497 l 0,-158.94669 87.97351,0 c 48.4024,0 83.4219,18.46088 83.4219,60.74928 0,34.3912 -26.7487,49.0308 -54.1767,50.83096"
       style="fill:#ffffff;fill-opacity:1;fill-rule:nonzero;stroke:none"
       id="path3941"
       inkscape:connector-curvature="0" /><path
       d="m 798.63822,882.32414 30.97753,0 c 25.81461,0 39.26539,-7.54058 39.26539,-34.91764 0,-24.45592 -17.61168,-38.95968 -45.83792,-38.95968 l -24.405,0 0,73.87732 z m 81.77457,-180.10788 57.31863,0 -73.26594,93.64592 c 29.36412,7.82928 51.35749,23.87848 51.35749,53.0728 0,34.25531 -20.48186,52.34251 -74.09813,52.34251 l -110.76505,0 0,-1.69832 c 4.09296,-1.44358 8.64449,-4.07599 11.63355,-7.03109 7.77835,-7.6255 10.05412,-19.29302 10.05412,-35.0875 l 0,-155.24432 45.99076,0 0,88.26224 16.81346,0 64.96111,-88.26224"
       style="fill:#ffffff;fill-opacity:1;fill-rule:nonzero;stroke:none"
       id="path3943"
       inkscape:connector-curvature="0" /><path
       d="m 1337.6201,874.01931 c 12.3129,-6.96316 16.0492,-16.08321 16.1172,-16.16809 l 1.9191,-0.47552 10.0201,34.06847 c 0,0 -17.9853,12.89032 -60.7662,12.89032 -64.7064,0 -113.1427,-32.59094 -113.1427,-103.93775 0,-80.382 57.6922,-101.25448 108.5912,-101.25448 47.3324,0 65.9291,15.0812 65.9291,15.0812 l 0,23.31808 c 0,0 -16.7285,-15.57368 -52.5803,-15.57368 -29.6188,0 -73.0961,13.50168 -73.9962,79.58368 -0.9171,61.00404 25.7127,80.90846 61.3607,80.90846 19.8704,0 29.7887,-4.65342 36.548,-8.44069"
       style="fill:#ffffff;fill-opacity:1;fill-rule:nonzero;stroke:none"
       id="path3945"
       inkscape:connector-curvature="0" /></g></svg>