<?xml version="1.0" encoding="utf-8"?>
<!-- Generator: Adobe Illustrator 16.0.0, SVG Export Plug-In . SVG Version: 6.00 Build 0)  -->
<!DOCTYPE svg PUBLIC "-//W3C//DTD SVG 1.1//EN" "http://www.w3.org/Graphics/SVG/1.1/DTD/svg11.dtd">
<svg version="1.1" id="Layer_1" xmlns="http://www.w3.org/2000/svg" xmlns:xlink="http://www.w3.org/1999/xlink" x="0px" y="0px"
	 width="518px" height="136px" viewBox="0 0 518 136" enable-background="new 0 0 518 136" xml:space="preserve">
<g>
	<g>
		<g>
			<path fill="#231F20" d="M118.703,63.604c-1.604-2.013-3.617-3.711-5.976-5.063c-2.358-1.353-5.283-2.044-8.711-2.044
				c-3.239,0-6.038,0.692-8.397,2.044s-3.554,3.365-3.554,5.976c0,2.107,0.692,3.837,2.044,5.126
				c1.353,1.321,2.988,2.358,4.843,3.177c1.855,0.817,3.869,1.415,5.976,1.824c2.107,0.408,3.931,0.754,5.441,1.068
				c2.925,0.692,5.692,1.573,8.24,2.58c2.547,1.006,4.78,2.326,6.667,3.931c1.855,1.604,3.333,3.585,4.371,5.913
				c1.069,2.326,1.604,5.125,1.604,8.49c0,4.058-0.849,7.518-2.579,10.379c-1.73,2.894-3.931,5.221-6.667,7.045
				s-5.818,3.145-9.309,3.932c-3.491,0.785-7.013,1.194-10.536,1.194c-5.944,0-11.196-0.912-15.662-2.735
				c-4.497-1.824-8.491-5.127-12.014-10.002l10.284-8.491c2.233,2.233,4.686,4.183,7.422,5.913
				c2.736,1.729,6.039,2.578,10.001,2.578c1.699,0,3.459-0.188,5.221-0.534c1.761-0.378,3.334-0.912,4.686-1.667
				c1.353-0.755,2.485-1.698,3.334-2.861c0.849-1.164,1.289-2.517,1.289-3.994c0-2.014-0.629-3.68-1.887-5.001
				c-1.258-1.321-2.768-2.327-4.56-3.082c-1.793-0.755-3.648-1.353-5.598-1.824c-1.981-0.44-3.711-0.849-5.221-1.132
				c-2.925-0.692-5.692-1.51-8.334-2.422c-2.61-0.912-4.969-2.107-6.951-3.648c-2.013-1.51-3.648-3.428-4.843-5.755
				c-1.195-2.327-1.824-5.221-1.824-8.649c0-3.742,0.786-6.982,2.327-9.75c1.572-2.767,3.648-5.063,6.195-6.887
				s5.504-3.176,8.774-4.088c3.271-0.912,6.604-1.353,9.907-1.353c4.843,0,9.466,0.912,13.932,2.736
				c4.435,1.824,7.988,4.843,10.599,9.089L118.703,63.604z"/>
			<path fill="#231F20" d="M186.194,57.408h-19.53v32.55c0,2.013,0.031,4.026,0.157,5.976c0.094,1.981,0.472,3.742,1.132,5.283
				c0.661,1.572,1.667,2.831,3.02,3.774c1.352,0.943,3.365,1.446,5.975,1.446c1.604,0,3.271-0.156,5-0.439
				c1.698-0.283,3.271-0.85,4.686-1.668v12.424c-1.604,0.912-3.711,1.541-6.258,1.887c-2.579,0.377-4.56,0.534-5.976,0.534
				c-5.252,0-9.309-0.724-12.171-2.201c-2.894-1.446-5-3.365-6.353-5.692c-1.352-2.328-2.17-4.906-2.421-7.8
				c-0.251-2.862-0.377-5.786-0.377-8.712V57.408H137.29V45.583h15.756V25.455h13.618v20.128h19.562v11.825H186.194z"/>
			<path fill="#231F20" d="M275.668,117.352h-13.617v-10.285h-0.283c-2.61,3.838-6.227,6.825-10.819,8.932
				c-4.591,2.107-9.309,3.177-14.152,3.177c-5.535,0-10.567-0.943-15.064-2.862c-4.497-1.918-8.334-4.592-11.51-8.02
				s-5.629-7.422-7.328-11.951c-1.73-4.56-2.579-9.466-2.579-14.844c0-5.346,0.849-10.315,2.579-14.907
				c1.729-4.592,4.151-8.554,7.328-11.951c3.176-3.396,7.013-6.038,11.51-7.957c4.466-1.918,9.498-2.894,15.064-2.894
				c5.126,0,10.001,1.101,14.53,3.239c4.561,2.17,8.02,5.126,10.441,8.869h0.283V2.937h13.617V117.352L275.668,117.352z
				 M238.432,106.469c3.648,0,6.919-0.629,9.844-1.887s5.377-2.987,7.422-5.126c2.013-2.17,3.585-4.78,4.686-7.862
				s1.667-6.447,1.667-10.064c0-3.616-0.535-6.981-1.667-10.063c-1.101-3.082-2.673-5.692-4.686-7.862s-4.497-3.9-7.422-5.126
				c-2.925-1.258-6.196-1.887-9.844-1.887c-3.648,0-6.919,0.629-9.844,1.887c-2.925,1.258-5.41,2.988-7.422,5.126
				c-2.013,2.17-3.585,4.78-4.686,7.862c-1.101,3.082-1.667,6.447-1.667,10.063c0,3.617,0.535,7.014,1.667,10.064
				c1.101,3.082,2.673,5.692,4.686,7.862s4.466,3.899,7.422,5.126C231.513,105.809,234.784,106.469,238.432,106.469z"/>
			<path fill="#231F20" d="M297.306,2.937h13.618v114.446h-13.618V2.937L297.306,2.937z"/>
			<path fill="#231F20" d="M330.453,19.889c0-2.736,0.976-5.063,2.957-7.045s4.309-2.956,7.044-2.956
				c2.736,0,5.063,0.975,7.045,2.956s2.956,4.309,2.956,7.045c0,2.736-0.975,5.063-2.956,7.044s-4.309,2.957-7.045,2.957
				c-2.735,0-5.062-0.975-7.044-2.957S330.453,22.593,330.453,19.889z M333.661,45.614h13.618v71.769h-13.618V45.614z"/>
			<path fill="#231F20" d="M368.916,2.937h13.618V55.93h0.283c2.422-3.743,5.912-6.667,10.441-8.869
				c4.56-2.17,9.372-3.239,14.529-3.239c5.535,0,10.567,0.943,15.064,2.893c4.466,1.918,8.334,4.561,11.511,7.957
				c3.176,3.396,5.629,7.359,7.328,11.951c1.698,4.592,2.578,9.561,2.578,14.907c0,5.347-0.849,10.285-2.578,14.845
				c-1.73,4.56-4.151,8.522-7.328,11.95c-3.177,3.429-7.014,6.102-11.511,8.021c-4.497,1.918-9.529,2.862-15.064,2.862
				c-4.843,0-9.561-1.07-14.152-3.178c-4.592-2.106-8.208-5.094-10.818-8.932h-0.283v10.285h-13.618V2.937L368.916,2.937z
				 M406.152,106.469c3.648,0,6.919-0.629,9.844-1.887c2.926-1.258,5.378-2.987,7.423-5.126c2.013-2.17,3.585-4.78,4.686-7.862
				s1.667-6.447,1.667-10.064c0-3.616-0.534-6.981-1.667-10.063c-1.101-3.082-2.673-5.692-4.686-7.862s-4.498-3.9-7.423-5.126
				c-2.925-1.258-6.195-1.887-9.844-1.887c-3.647,0-6.918,0.629-9.844,1.887c-2.925,1.258-5.409,2.988-7.422,5.126
				c-2.013,2.17-3.585,4.78-4.686,7.862s-1.667,6.447-1.667,10.063c0,3.617,0.534,7.014,1.667,10.064
				c1.101,3.082,2.673,5.692,4.686,7.862s4.466,3.899,7.422,5.126C399.234,105.809,402.505,106.469,406.152,106.469z"/>
		</g>
	</g>
	<g>
		
			<rect x="464.111" y="31.183" transform="matrix(-0.7071 0.7071 -0.7071 -0.7071 839.6818 -230.3664)" fill="#294C85" width="6.888" height="55.1"/>
		
			<rect x="440.016" y="99.103" transform="matrix(-0.7071 0.7071 -0.7071 -0.7071 870.6958 -155.5622)" fill="#294C85" width="55.099" height="6.887"/>
		
			<rect x="486.023" y="77.19" transform="matrix(-0.7071 0.7071 -0.7071 -0.7071 892.5887 -208.4548)" fill="#294C85" width="6.887" height="6.887"/>
		<path fill="#9C74B0" d="M489.463,85.523l-38.935,38.936c8.082,8.082,21.134,8.082,29.217,0l29.217-29.217l-14.593-14.593
			L489.463,85.523z"/>
		<path fill="#52BB8E" d="M494.338,80.648l14.593-14.592L479.714,36.84c-8.083-8.083-21.135-8.083-29.217,0l38.966,38.966
			L494.338,80.648z"/>
		<path fill="#52BB8E" d="M508.962,95.242c8.082-8.083,8.082-21.135,0-29.217l-14.593,14.592L508.962,95.242z"/>
		<polygon fill="#6F4799" points="508.962,95.242 484.588,90.367 494.338,80.648 		"/>
	</g>
	<g>
		
			<rect x="23.111" y="54.991" transform="matrix(-0.7071 0.7071 -0.7071 -0.7071 128.3366 63.7739)" fill="#4773B5" width="55.697" height="6.951"/>
		
			<rect x="47.503" y="74.954" transform="matrix(-0.7071 0.7071 -0.7071 -0.7071 159.7201 139.4426)" fill="#4773B5" width="6.951" height="55.697"/>
		
			<rect x="25.326" y="77.168" transform="matrix(-0.7071 0.7071 -0.7071 -0.7071 106.1923 117.2978)" fill="#4773B5" width="6.951" height="6.951"/>
		<path fill="#ED4D41" d="M23.882,80.648L9.101,95.431l29.531,29.531c8.146,8.146,21.386,8.146,29.531,0L28.82,85.555L23.882,80.648
			z"/>
		<path fill="#ED4D41" d="M9.133,65.868c-8.146,8.146-8.146,21.386,0,29.531l14.781-14.781L9.133,65.868z"/>
		<path fill="#F9AB40" d="M28.82,75.711l39.406-39.406c-8.146-8.146-21.386-8.146-29.531,0L9.164,65.836l14.781,14.781L28.82,75.711
			z"/>
		<polygon fill="#F58D47" points="9.133,65.868 33.726,70.806 23.882,80.648 		"/>
	</g>
</g>
</svg>
